Bold.ufo
<glyph name="exclam" format="2">
  <advance width="390"/>
  <unicode hex="0021"/>
  <outline>
    <contour>
      <point x="85.0" y="95.0" type="curve" smooth="yes"/>
      <point x="85.0" y="153.0"/>
      <point x="134.0" y="205.0"/>
      <point x="195.0" y="205.0" type="curve" smooth="yes"/>
      <point x="256.0" y="205.0"/>
      <point x="305.0" y="153.0"/>
      <point x="305.0" y="95.0" type="curve" smooth="yes"/>
      <point x="305.0" y="37.0"/>
      <point x="256.0" y="-15.0"/>
      <point x="195.0" y="-15.0" type="curve" smooth="yes"/>
      <point x="134.0" y="-15.0"/>
      <point x="85.0" y="37.0"/>
    </contour>
    <contour>
      <point x="100.0" y="700.0" type="line"/>
      <point x="290.0" y="700.0" type="line"/>
      <point x="220.0" y="245.0" type="line"/>
      <point x="170.0" y="245.0" type="line"/>
    </contour>
  </outline>
</glyph>
<glyph name="quotedbl" format="2">
  <advance width="525"/>
  <unicode hex="0022"/>
  <outline>
    <contour>
      <point x="300.0" y="750.0" type="line"/>
      <point x="455.0" y="750.0" type="line"/>
      <point x="435.0" y="460.0" type="line"/>
      <point x="320.0" y="460.0" type="line"/>
    </contour>
    <contour>
      <point x="70.0" y="750.0" type="line"/>
      <point x="225.0" y="750.0" type="line"/>
      <point x="205.0" y="460.0" type="line"/>
      <point x="90.0" y="460.0" type="line"/>
    </contour>
  </outline>
</glyph>
<glyph name="numbersign" format="2">
  <advance width="645"/>
  <unicode hex="0023"/>
  <outline>
    <contour>
      <point x="60.0" y="400.0" type="line"/>
      <point x="60.0" y="525.0" type="line"/>
      <point x="615.0" y="525.0" type="line"/>
      <point x="615.0" y="400.0" type="line"/>
    </contour>
    <contour>
      <point x="30.0" y="180.0" type="line"/>
      <point x="30.0" y="305.0" type="line"/>
      <point x="585.0" y="305.0" type="line"/>
      <point x="585.0" y="180.0" type="line"/>
    </contour>
    <contour>
      <point x="430.0" y="700.0" type="line"/>
      <point x="560.0" y="700.0" type="line"/>
      <point x="430.0" y="0.0" type="line"/>
      <point x="300.0" y="0.0" type="line"/>
    </contour>
    <contour>
      <point x="215.0" y="700.0" type="line"/>
      <point x="345.0" y="700.0" type="line"/>
      <point x="215.0" y="0.0" type="line"/>
      <point x="85.0" y="0.0" type="line"/>
    </contour>
  </outline>
</glyph>
<glyph name="dollar" format="2">
  <advance width="765"/>
  <unicode hex="0024"/>
  <outline>
    <contour>
      <point x="445.0" y="740.0" type="line"/>
      <point x="485.0" y="740.0" type="line"/>
      <point x="485.0" y="-80.0" type="line"/>
      <point x="445.0" y="-80.0" type="line"/>
    </contour>
    <contour>
      <point x="305.0" y="740.0" type="line"/>
      <point x="345.0" y="740.0" type="line"/>
      <point x="345.0" y="-80.0" type="line"/>
      <point x="305.0" y="-80.0" type="line"/>
    </contour>
    <contour>
      <point x="138.0" y="195.0" type="line"/>
      <point x="204.0" y="151.0"/>
      <point x="281.0" y="118.0"/>
      <point x="395.0" y="118.0" type="curve" smooth="yes"/>
      <point x="510.0" y="118.0"/>
      <point x="566.0" y="140.0"/>
      <point x="566.0" y="203.0" type="curve" smooth="yes"/>
      <point x="566.0" y="265.0"/>
      <point x="537.669921875" y="276.068359375"/>
      <point x="398.0" y="288.0" type="curve" smooth="yes"/>
      <point x="213.993164062" y="303.719726562"/>
      <point x="97.0" y="374.0"/>
      <point x="97.0" y="501.0" type="curve" smooth="yes"/>
      <point x="97.0" y="635.0"/>
      <point x="211.0" y="710.0"/>
      <point x="400.0" y="710.0" type="curve" smooth="yes"/>
      <point x="533.0" y="710.0"/>
      <point x="618.0" y="664.0"/>
      <point x="693.0" y="611.0" type="curve"/>
      <point x="616.0" y="501.0" type="line"/>
      <point x="569.0" y="543.0"/>
      <point x="492.0" y="580.0"/>
      <point x="390.0" y="580.0" type="curve" smooth="yes"/>
      <point x="284.0" y="580.0"/>
      <point x="242.0" y="559.0"/>
      <point x="242.0" y="507.0" type="curve" smooth="yes"/>
      <point x="242.0" y="446.0"/>
      <point x="298.137695312" y="429.642578125"/>
      <point x="428.0" y="418.0" type="curve" smooth="yes"/>
      <point x="591.368164062" y="403.353515625"/>
      <point x="715.0" y="352.0"/>
      <point x="715.0" y="210.0" type="curve" smooth="yes"/>
      <point x="715.0" y="62.0"/>
      <point x="571.0" y="-10.0"/>
      <point x="400.0" y="-10.0" type="curve" smooth="yes"/>
      <point x="236.0" y="-10.0"/>
      <point x="125.0" y="43.0"/>
      <point x="70.0" y="87.0" type="curve"/>
    </contour>
  </outline>
</glyph>
<glyph name="ampersand" format="2">
  <advance width="817"/>
  <unicode hex="0026"/>
  <outline>
    <contour>
      <point x="598.0" y="185.0" type="curve" smooth="yes"/>
      <point x="527.931640625" y="53.8837890625"/>
      <point x="420.0" y="-10.0"/>
      <point x="295.0" y="-10.0" type="curve" smooth="yes"/>
      <point x="160.0" y="-10.0"/>
      <point x="35.0" y="65.0"/>
      <point x="35.0" y="214.0" type="curve" smooth="yes"/>
      <point x="35.0" y="358.0"/>
      <point x="160.0" y="430.0"/>
      <point x="295.0" y="430.0" type="curve" smooth="yes"/>
      <point x="420.0" y="430.0"/>
      <point x="540.100585938" y="339.108398438"/>
      <point x="597.0" y="238.0" type="curve" smooth="yes"/>
      <point x="660.168945312" y="125.751953125"/>
      <point x="677.0" y="141.0"/>
      <point x="782.0" y="141.0" type="curve"/>
      <point x="782.0" y="0.0" type="line"/>
      <point x="627.0" y="0.0"/>
      <point x="578.104492188" y="57.2626953125"/>
      <point x="500.0" y="185.0" type="curve" smooth="yes"/>
      <point x="450.108398438" y="266.595703125"/>
      <point x="398.0" y="330.0"/>
      <point x="303.0" y="330.0" type="curve" smooth="yes"/>
      <point x="238.0" y="330.0"/>
      <point x="187.0" y="295.0"/>
      <point x="187.0" y="228.0" type="curve" smooth="yes"/>
      <point x="187.0" y="153.0"/>
      <point x="250.0" y="125.0"/>
      <point x="305.0" y="125.0" type="curve" smooth="yes"/>
      <point x="374.0" y="125.0"/>
      <point x="448.762695312" y="138.811523438"/>
      <point x="506.0" y="235.0" type="curve" smooth="yes"/>
      <point x="566.16796875" y="336.11328125"/>
      <point x="657.0" y="470.0"/>
      <point x="782.0" y="490.0" type="curve"/>
      <point x="782.0" y="340.0" type="line"/>
      <point x="697.0" y="330.0"/>
      <point x="632.267578125" y="249.123046875"/>
    </contour>
    <contour>
      <point x="127.0" y="540.0" type="curve" smooth="yes"/>
      <point x="127.0" y="644.0"/>
      <point x="215.0" y="715.0"/>
      <point x="340.0" y="715.0" type="curve" smooth="yes"/>
      <point x="465.0" y="715.0"/>
      <point x="553.0" y="644.0"/>
      <point x="553.0" y="540.0" type="curve" smooth="yes"/>
      <point x="553.0" y="436.0"/>
      <point x="465.0" y="380.0"/>
      <point x="340.0" y="380.0" type="curve" smooth="yes"/>
      <point x="215.0" y="380.0"/>
      <point x="127.0" y="436.0"/>
    </contour>
    <contour>
      <point x="258.0" y="535.0" type="curve" smooth="yes"/>
      <point x="258.0" y="489.0"/>
      <point x="293.0" y="465.0"/>
      <point x="340.0" y="465.0" type="curve" smooth="yes"/>
      <point x="387.0" y="465.0"/>
      <point x="422.0" y="489.0"/>
      <point x="422.0" y="535.0" type="curve" smooth="yes"/>
      <point x="422.0" y="581.0"/>
      <point x="387.0" y="610.0"/>
      <point x="340.0" y="610.0" type="curve" smooth="yes"/>
      <point x="293.0" y="610.0"/>
      <point x="258.0" y="581.0"/>
    </contour>
  </outline>
</glyph>
<glyph name="quotesingle" format="2">
  <advance width="295"/>
  <unicode hex="0027"/>
  <outline>
    <contour>
      <point x="80.0" y="750.0" type="line"/>
      <point x="235.0" y="750.0" type="line"/>
      <point x="205.0" y="460.0" type="line"/>
      <point x="90.0" y="460.0" type="line"/>
    </contour>
  </outline>
</glyph>
<glyph name="asterisk" format="2">
  <advance width="578"/>
  <unicode hex="002A"/>
  <outline>
    <contour>
      <point x="482.0" y="619.0" type="line"/>
      <point x="536.0" y="457.0" type="line"/>
      <point x="294.0" y="443.0" type="line"/>
      <point x="279.0" y="491.0" type="line"/>
    </contour>
    <contour>
      <point x="493.0" y="340.0" type="line"/>
      <point x="354.0" y="239.0" type="line"/>
      <point x="266.0" y="464.0" type="line"/>
      <point x="307.0" y="493.0" type="line"/>
    </contour>
    <contour>
      <point x="230.0" y="236.0" type="line"/>
      <point x="92.0" y="335.0" type="line"/>
      <point x="277.0" y="490.0" type="line"/>
      <point x="318.0" y="460.0" type="line"/>
    </contour>
    <contour>
      <point x="43.0" y="457.0" type="line"/>
      <point x="95.0" y="618.0" type="line"/>
      <point x="299.0" y="489.0" type="line"/>
      <point x="283.0" y="441.0" type="line"/>
    </contour>
    <contour>
      <point x="206.0" y="700.0" type="line"/>
      <point x="376.0" y="700.0" type="line"/>
      <point x="316.0" y="465.0" type="line"/>
      <point x="266.0" y="465.0" type="line"/>
    </contour>
  </outline>
</glyph>
<glyph name="plus" format="2">
  <advance width="675"/>
  <unicode hex="002B"/>
  <outline>
    <contour>
      <point x="90.0" y="190.0" type="line"/>
      <point x="90.0" y="320.0" type="line"/>
      <point x="585.0" y="320.0" type="line"/>
      <point x="585.0" y="190.0" type="line"/>
    </contour>
    <contour>
      <point x="265.0" y="500.0" type="line"/>
      <point x="405.0" y="500.0" type="line"/>
      <point x="405.0" y="10.0" type="line"/>
      <point x="265.0" y="10.0" type="line"/>
    </contour>
  </outline>
</glyph>
<glyph name="comma" format="2">
  <advance height="2000" width="387"/>
  <unicode hex="002C"/>
  <outline>
    <contour>
      <point x="75.0" y="94.0" type="curve" smooth="yes"/>
      <point x="75.0" y="155.0"/>
      <point x="131.0" y="205.0"/>
      <point x="192.0" y="205.0" type="curve" smooth="yes"/>
      <point x="260.0" y="205.0"/>
      <point x="312.0" y="150.0"/>
      <point x="312.0" y="74.0" type="curve" smooth="yes"/>
      <point x="312.0" y="-32.0"/>
      <point x="233.0" y="-111.0"/>
      <point x="163.0" y="-146.0" type="curve"/>
      <point x="163.0" y="-89.0" type="line"/>
      <point x="198.0" y="-68.0"/>
      <point x="218.0" y="-2.0"/>
      <point x="218.0" y="59.0" type="curve"/>
      <point x="241.0" y="19.0" type="line"/>
      <point x="241.0" y="14.0"/>
      <point x="230.0" y="-15.0"/>
      <point x="188.0" y="-15.0" type="curve" smooth="yes"/>
      <point x="122.0" y="-15.0"/>
      <point x="75.0" y="33.0"/>
    </contour>
  </outline>
</glyph>
<glyph name="hyphen" format="2">
  <advance width="320"/>
  <unicode hex="002D"/>
  <outline>
    <contour>
      <point x="20.0" y="215.0" type="line"/>
      <point x="20.0" y="355.0" type="line"/>
      <point x="300.0" y="355.0" type="line"/>
      <point x="300.0" y="215.0" type="line"/>
    </contour>
  </outline>
</glyph>
<glyph name="period" format="2">
  <advance width="380"/>
  <unicode hex="002E"/>
  <outline>
    <contour>
      <point x="80.0" y="95.0" type="curve" smooth="yes"/>
      <point x="80.0" y="153.0"/>
      <point x="129.0" y="205.0"/>
      <point x="190.0" y="205.0" type="curve" smooth="yes"/>
      <point x="251.0" y="205.0"/>
      <point x="300.0" y="153.0"/>
      <point x="300.0" y="95.0" type="curve" smooth="yes"/>
      <point x="300.0" y="37.0"/>
      <point x="251.0" y="-15.0"/>
      <point x="190.0" y="-15.0" type="curve" smooth="yes"/>
      <point x="129.0" y="-15.0"/>
      <point x="80.0" y="37.0"/>
    </contour>
  </outline>
</glyph>
<glyph name="zero" format="2">
  <advance width="810"/>
  <unicode hex="0030"/>
  <outline>
    <contour>
      <point x="210.0" y="350.0" type="curve" smooth="yes"/>
      <point x="210.0" y="206.0"/>
      <point x="302.0" y="130.0"/>
      <point x="405.0" y="130.0" type="curve" smooth="yes"/>
      <point x="508.0" y="130.0"/>
      <point x="600.0" y="206.0"/>
      <point x="600.0" y="350.0" type="curve" smooth="yes"/>
      <point x="600.0" y="494.0"/>
      <point x="508.0" y="570.0"/>
      <point x="405.0" y="570.0" type="curve" smooth="yes"/>
      <point x="302.0" y="570.0"/>
      <point x="210.0" y="494.0"/>
    </contour>
    <contour>
      <point x="45.0" y="350.0" type="curve" smooth="yes"/>
      <point x="45.0" y="574.0"/>
      <point x="216.0" y="710.0"/>
      <point x="405.0" y="710.0" type="curve" smooth="yes"/>
      <point x="594.0" y="710.0"/>
      <point x="765.0" y="574.0"/>
      <point x="765.0" y="350.0" type="curve" smooth="yes"/>
      <point x="765.0" y="126.0"/>
      <point x="594.0" y="-10.0"/>
      <point x="405.0" y="-10.0" type="curve" smooth="yes"/>
      <point x="216.0" y="-10.0"/>
      <point x="45.0" y="126.0"/>
    </contour>
  </outline>
</glyph>
<glyph name="one" format="2">
  <advance width="512"/>
  <unicode hex="0031"/>
  <outline>
    <contour>
      <point x="100.0" y="499.0" type="line"/>
      <point x="100.0" y="634.0" type="line"/>
      <point x="215.0" y="634.0" type="line"/>
      <point x="215.0" y="499.0" type="line"/>
    </contour>
    <contour>
      <point x="212.0" y="700.0" type="line"/>
      <point x="372.0" y="700.0" type="line"/>
      <point x="372.0" y="0.0" type="line"/>
      <point x="212.0" y="0.0" type="line"/>
    </contour>
  </outline>
</glyph>
<glyph name="two" format="2">
  <advance width="695"/>
  <unicode hex="0032"/>
  <outline>
    <contour>
      <point x="30.0" y="0.0" type="line"/>
      <point x="131.0" y="140.0" type="line"/>
      <point x="665.0" y="140.0" type="line"/>
      <point x="665.0" y="0.0" type="line"/>
    </contour>
    <contour>
      <point x="30.0" y="0.0" type="line"/>
      <point x="30.0" y="240.0"/>
      <point x="232.122070312" y="300.587890625"/>
      <point x="362.0" y="360.0" type="curve" smooth="yes"/>
      <point x="417.864257812" y="385.5546875"/>
      <point x="477.0" y="425.0"/>
      <point x="477.0" y="491.0" type="curve" smooth="yes"/>
      <point x="477.0" y="542.0"/>
      <point x="430.0" y="571.0"/>
      <point x="368.0" y="571.0" type="curve" smooth="yes"/>
      <point x="288.0" y="571.0"/>
      <point x="217.0" y="524.0"/>
      <point x="167.0" y="446.0" type="curve"/>
      <point x="72.0" y="546.0" type="line"/>
      <point x="142.0" y="645.0"/>
      <point x="241.0" y="711.0"/>
      <point x="378.0" y="711.0" type="curve" smooth="yes"/>
      <point x="555.0" y="711.0"/>
      <point x="630.0" y="612.0"/>
      <point x="630.0" y="508.0" type="curve" smooth="yes"/>
      <point x="630.0" y="366.0"/>
      <point x="556.068359375" y="307.010742188"/>
      <point x="460.0" y="264.0" type="curve" smooth="yes"/>
      <point x="349.316529013" y="214.44592969"/>
      <point x="264.0" y="180.0"/>
      <point x="234.0" y="100.0" type="curve"/>
    </contour>
  </outline>
</glyph>
<glyph name="three" format="2">
  <advance width="747"/>
  <unicode hex="0033"/>
  <outline>
    <contour>
      <point x="300.0" y="337.0" type="curve"/>
      <point x="300.0" y="435.0" type="line"/>
      <point x="470.0" y="435.0"/>
      <point x="515.0" y="466.0"/>
      <point x="515.0" y="510.0" type="curve" smooth="yes"/>
      <point x="515.0" y="552.0"/>
      <point x="480.0" y="576.0"/>
      <point x="400.0" y="576.0" type="curve" smooth="yes"/>
      <point x="315.0" y="576.0"/>
      <point x="230.0" y="543.0"/>
      <point x="182.0" y="472.0" type="curve"/>
      <point x="91.0" y="586.0" type="line"/>
      <point x="170.0" y="674.0"/>
      <point x="279.0" y="710.0"/>
      <point x="394.0" y="710.0" type="curve" smooth="yes"/>
      <point x="564.0" y="710.0"/>
      <point x="667.0" y="636.0"/>
      <point x="667.0" y="534.0" type="curve" smooth="yes"/>
      <point x="667.0" y="395.0"/>
      <point x="485.0" y="337.0"/>
    </contour>
    <contour>
      <point x="390.0" y="-10.0" type="curve" smooth="yes"/>
      <point x="205.0" y="-10.0"/>
      <point x="114.0" y="64.0"/>
      <point x="64.0" y="105.0" type="curve"/>
      <point x="133.0" y="238.0" type="line"/>
      <point x="173.0" y="194.0"/>
      <point x="270.0" y="130.0"/>
      <point x="380.0" y="130.0" type="curve" smooth="yes"/>
      <point x="500.0" y="130.0"/>
      <point x="543.0" y="169.0"/>
      <point x="543.0" y="225.0" type="curve" smooth="yes"/>
      <point x="543.0" y="291.0"/>
      <point x="500.0" y="317.0"/>
      <point x="300.0" y="317.0" type="curve"/>
      <point x="300.0" y="415.0" type="line"/>
      <point x="525.0" y="415.0"/>
      <point x="702.0" y="355.0"/>
      <point x="702.0" y="206.0" type="curve" smooth="yes"/>
      <point x="702.0" y="69.0"/>
      <point x="565.0" y="-10.0"/>
    </contour>
  </outline>
</glyph>
<glyph name="four" format="2">
  <advance width="743"/>
  <unicode hex="0034"/>
  <outline>
    <contour>
      <point x="30.0" y="130.0" type="line"/>
      <point x="30.0" y="260.0" type="line"/>
      <point x="398.0" y="700.0" type="line"/>
      <point x="593.0" y="700.0" type="line"/>
      <point x="593.0" y="0.0" type="line"/>
      <point x="443.0" y="0.0" type="line"/>
      <point x="443.0" y="176.0" type="line"/>
      <point x="443.0" y="187.0" type="line"/>
      <point x="443.0" y="560.0" type="line"/>
      <point x="177.0" y="250.0" type="line"/>
      <point x="478.0" y="250.0" type="line"/>
      <point x="515.0" y="250.0" type="line"/>
      <point x="703.0" y="250.0" type="line"/>
      <point x="703.0" y="130.0" type="line"/>
    </contour>
  </outline>
</glyph>
<glyph name="five" format="2">
  <advance width="732"/>
  <unicode hex="0035"/>
  <outline>
    <contour>
      <point x="682.0" y="240.0" type="curve" smooth="yes"/>
      <point x="682.0" y="71.0"/>
      <point x="551.0" y="-10.0"/>
      <point x="376.0" y="-10.0" type="curve" smooth="yes"/>
      <point x="217.0" y="-10.0"/>
      <point x="94.0" y="52.0"/>
      <point x="48.0" y="107.0" type="curve"/>
      <point x="132.0" y="220.0" type="line"/>
      <point x="173.0" y="175.0"/>
      <point x="269.0" y="130.0"/>
      <point x="376.0" y="130.0" type="curve" smooth="yes"/>
      <point x="471.0" y="130.0"/>
      <point x="529.0" y="159.0"/>
      <point x="529.0" y="240.0" type="curve" smooth="yes"/>
      <point x="529.0" y="321.0"/>
      <point x="471.0" y="356.0"/>
      <point x="396.0" y="356.0" type="curve" smooth="yes"/>
      <point x="329.0" y="356.0"/>
      <point x="262.0" y="337.0"/>
      <point x="211.0" y="300.0" type="curve"/>
      <point x="85.0" y="380.0" type="line"/>
      <point x="85.0" y="700.0" type="line"/>
      <point x="629.0" y="700.0" type="line"/>
      <point x="629.0" y="570.0" type="line"/>
      <point x="225.0" y="570.0" type="line"/>
      <point x="225.0" y="443.0" type="line"/>
      <point x="258.0" y="462.0"/>
      <point x="317.0" y="486.0"/>
      <point x="402.0" y="486.0" type="curve" smooth="yes"/>
      <point x="562.0" y="486.0"/>
      <point x="682.0" y="389.0"/>
    </contour>
  </outline>
</glyph>
<glyph name="six" format="2">
  <advance height="2309" width="694"/>
  <unicode hex="0036"/>
  <outline>
    <contour>
      <point x="394.0" y="580.0" type="curve"/>
      <point x="404.0" y="710.0" type="line"/>
      <point x="494.0" y="710.0"/>
      <point x="568.0" y="676.0"/>
      <point x="622.0" y="637.0" type="curve"/>
      <point x="558.0" y="526.0" type="line"/>
      <point x="516.0" y="552.0"/>
      <point x="464.0" y="580.0"/>
    </contour>
    <contour>
      <point x="509.0" y="235.0" type="curve" smooth="yes"/>
      <point x="509.0" y="298.0"/>
      <point x="457.0" y="340.0"/>
      <point x="368.0" y="340.0" type="curve" smooth="yes"/>
      <point x="285.0" y="340.0"/>
      <point x="209.0" y="306.0"/>
      <point x="209.0" y="226.0" type="curve"/>
      <point x="158.0" y="280.0" type="line"/>
      <point x="158.0" y="397.0"/>
      <point x="249.0" y="470.0"/>
      <point x="380.0" y="470.0" type="curve" smooth="yes"/>
      <point x="491.0" y="470.0"/>
      <point x="659.0" y="413.0"/>
      <point x="659.0" y="240.0" type="curve" smooth="yes"/>
      <point x="659.0" y="80.0"/>
      <point x="544.0" y="-10.0"/>
      <point x="373.0" y="-10.0" type="curve" smooth="yes"/>
      <point x="182.0" y="-10.0"/>
      <point x="35.0" y="100.0"/>
      <point x="35.0" y="330.0" type="curve" smooth="yes"/>
      <point x="35.0" y="563.0"/>
      <point x="182.0" y="710.0"/>
      <point x="404.0" y="710.0" type="curve"/>
      <point x="394.0" y="580.0" type="line"/>
      <point x="270.0" y="580.0"/>
      <point x="178.0" y="492.0"/>
      <point x="178.0" y="350.0" type="curve"/>
      <point x="209.0" y="226.0" type="line"/>
      <point x="209.0" y="162.0"/>
      <point x="264.0" y="120.0"/>
      <point x="373.0" y="120.0" type="curve" smooth="yes"/>
      <point x="472.0" y="120.0"/>
      <point x="509.0" y="161.0"/>
    </contour>
  </outline>
</glyph>
<glyph name="seven" format="2">
  <advance width="679"/>
  <unicode hex="0037"/>
  <outline>
    <contour>
      <point x="30.0" y="550.0" type="line"/>
      <point x="30.0" y="700.0" type="line"/>
      <point x="649.0" y="700.0" type="line"/>
      <point x="649.0" y="581.0" type="line"/>
      <point x="343.0" y="0.0" type="line"/>
      <point x="152.0" y="0.0" type="line"/>
      <point x="469.0" y="550.0" type="line"/>
    </contour>
  </outline>
</glyph>
<glyph name="eight" format="2">
  <advance width="746"/>
  <unicode hex="0038"/>
  <outline>
    <contour>
      <point x="70.0" y="524.0" type="curve" smooth="yes"/>
      <point x="70.0" y="633.0"/>
      <point x="193.0" y="710.0"/>
      <point x="373.0" y="710.0" type="curve" smooth="yes"/>
      <point x="553.0" y="710.0"/>
      <point x="676.0" y="633.0"/>
      <point x="676.0" y="524.0" type="curve" smooth="yes"/>
      <point x="676.0" y="405.0"/>
      <point x="558.0" y="340.0"/>
      <point x="373.0" y="340.0" type="curve" smooth="yes"/>
      <point x="188.0" y="340.0"/>
      <point x="70.0" y="405.0"/>
    </contour>
    <contour>
      <point x="236.0" y="506.0" type="curve" smooth="yes"/>
      <point x="236.0" y="462.0"/>
      <point x="293.0" y="430.0"/>
      <point x="373.0" y="430.0" type="curve" smooth="yes"/>
      <point x="453.0" y="430.0"/>
      <point x="510.0" y="462.0"/>
      <point x="510.0" y="506.0" type="curve" smooth="yes"/>
      <point x="510.0" y="552.0"/>
      <point x="458.0" y="585.0"/>
      <point x="373.0" y="585.0" type="curve" smooth="yes"/>
      <point x="288.0" y="585.0"/>
      <point x="236.0" y="552.0"/>
    </contour>
    <contour>
      <point x="45.0" y="195.0" type="curve" smooth="yes"/>
      <point x="45.0" y="324.0"/>
      <point x="188.0" y="405.0"/>
      <point x="373.0" y="405.0" type="curve" smooth="yes"/>
      <point x="558.0" y="405.0"/>
      <point x="701.0" y="324.0"/>
      <point x="701.0" y="195.0" type="curve" smooth="yes"/>
      <point x="701.0" y="76.0"/>
      <point x="568.0" y="-10.0"/>
      <point x="373.0" y="-10.0" type="curve" smooth="yes"/>
      <point x="178.0" y="-10.0"/>
      <point x="45.0" y="76.0"/>
    </contour>
    <contour>
      <point x="216.0" y="222.0" type="curve" smooth="yes"/>
      <point x="216.0" y="166.0"/>
      <point x="273.0" y="130.0"/>
      <point x="373.0" y="130.0" type="curve" smooth="yes"/>
      <point x="473.0" y="130.0"/>
      <point x="530.0" y="166.0"/>
      <point x="530.0" y="222.0" type="curve" smooth="yes"/>
      <point x="530.0" y="268.0"/>
      <point x="473.0" y="315.0"/>
      <point x="373.0" y="315.0" type="curve" smooth="yes"/>
      <point x="273.0" y="315.0"/>
      <point x="216.0" y="268.0"/>
    </contour>
  </outline>
</glyph>
<glyph name="nine" format="2">
  <advance height="2309" width="717"/>
  <unicode hex="0039"/>
  <outline>
    <contour>
      <point x="323.0" y="120.0" type="curve"/>
      <point x="313.0" y="-10.0" type="line"/>
      <point x="203.0" y="-10.0"/>
      <point x="104.0" y="34.0"/>
      <point x="50.0" y="83.0" type="curve"/>
      <point x="120.0" y="191.0" type="line"/>
      <point x="162.0" y="155.0"/>
      <point x="243.0" y="120.0"/>
    </contour>
    <contour>
      <point x="208.0" y="465.0" type="curve" smooth="yes"/>
      <point x="208.0" y="402.0"/>
      <point x="280.0" y="360.0"/>
      <point x="359.0" y="360.0" type="curve" smooth="yes"/>
      <point x="432.0" y="360.0"/>
      <point x="508.0" y="394.0"/>
      <point x="508.0" y="474.0" type="curve"/>
      <point x="559.0" y="420.0" type="line"/>
      <point x="559.0" y="303.0"/>
      <point x="468.0" y="230.0"/>
      <point x="337.0" y="230.0" type="curve" smooth="yes"/>
      <point x="226.0" y="230.0"/>
      <point x="58.0" y="287.0"/>
      <point x="58.0" y="460.0" type="curve" smooth="yes"/>
      <point x="58.0" y="620.0"/>
      <point x="173.0" y="710.0"/>
      <point x="344.0" y="710.0" type="curve" smooth="yes"/>
      <point x="535.0" y="710.0"/>
      <point x="682.0" y="600.0"/>
      <point x="682.0" y="370.0" type="curve" smooth="yes"/>
      <point x="682.0" y="137.0"/>
      <point x="535.0" y="-10.0"/>
      <point x="313.0" y="-10.0" type="curve"/>
      <point x="323.0" y="120.0" type="line"/>
      <point x="447.0" y="120.0"/>
      <point x="539.0" y="208.0"/>
      <point x="539.0" y="350.0" type="curve"/>
      <point x="508.0" y="474.0" type="line"/>
      <point x="508.0" y="538.0"/>
      <point x="453.0" y="580.0"/>
      <point x="354.0" y="580.0" type="curve" smooth="yes"/>
      <point x="265.0" y="580.0"/>
      <point x="208.0" y="539.0"/>
    </contour>
  </outline>
</glyph>
<glyph name="less" format="2">
  <advance width="640"/>
  <unicode hex="003C"/>
  <outline>
    <contour>
      <point x="237.0" y="262.0" type="line"/>
      <point x="575.0" y="145.0" type="line"/>
      <point x="575.0" y="5.0" type="line"/>
      <point x="65.0" y="205.0" type="line"/>
      <point x="65.0" y="310.0" type="line"/>
      <point x="575.0" y="510.0" type="line"/>
      <point x="575.0" y="370.0" type="line"/>
    </contour>
  </outline>
</glyph>
<glyph name="greater" format="2">
  <advance width="640"/>
  <unicode hex="003E"/>
  <outline>
    <contour>
      <point x="403.0" y="253.0" type="line"/>
      <point x="65.0" y="370.0" type="line"/>
      <point x="65.0" y="510.0" type="line"/>
      <point x="575.0" y="310.0" type="line"/>
      <point x="575.0" y="205.0" type="line"/>
      <point x="65.0" y="5.0" type="line"/>
      <point x="65.0" y="145.0" type="line"/>
    </contour>
  </outline>
</glyph>
<glyph name="question" format="2">
  <advance width="557"/>
  <unicode hex="003F"/>
  <outline>
    <contour>
      <point x="160.0" y="85.0" type="curve" smooth="yes"/>
      <point x="160.0" y="143.0"/>
      <point x="209.0" y="185.0"/>
      <point x="270.0" y="185.0" type="curve" smooth="yes"/>
      <point x="331.0" y="185.0"/>
      <point x="380.0" y="143.0"/>
      <point x="380.0" y="85.0" type="curve" smooth="yes"/>
      <point x="380.0" y="27.0"/>
      <point x="331.0" y="-15.0"/>
      <point x="270.0" y="-15.0" type="curve" smooth="yes"/>
      <point x="209.0" y="-15.0"/>
      <point x="160.0" y="27.0"/>
    </contour>
    <contour>
      <point x="317.0" y="509.0" type="curve" smooth="yes"/>
      <point x="317.0" y="535.0"/>
      <point x="291.0" y="552.0"/>
      <point x="258.0" y="552.0" type="curve" smooth="yes"/>
      <point x="216.0" y="552.0"/>
      <point x="181.0" y="538.0"/>
      <point x="155.0" y="500.0" type="curve"/>
      <point x="64.0" y="583.0" type="line"/>
      <point x="110.0" y="663.0"/>
      <point x="180.0" y="710.0"/>
      <point x="289.0" y="710.0" type="curve" smooth="yes"/>
      <point x="394.0" y="710.0"/>
      <point x="477.0" y="640.0"/>
      <point x="477.0" y="541.0" type="curve" smooth="yes"/>
      <point x="477.0" y="372.0"/>
      <point x="322.0" y="376.0"/>
      <point x="322.0" y="264.0" type="curve" smooth="yes"/>
      <point x="322.0" y="255.0"/>
      <point x="323.0" y="236.0"/>
      <point x="327.0" y="225.0" type="curve"/>
      <point x="197.0" y="225.0" type="line"/>
      <point x="195.0" y="243.0"/>
      <point x="193.0" y="259.0"/>
      <point x="193.0" y="277.0" type="curve" smooth="yes"/>
      <point x="193.0" y="367.0"/>
      <point x="317.0" y="429.0"/>
    </contour>
  </outline>
</glyph>
<glyph name="at" format="2">
  <advance width="770"/>
  <unicode hex="0040"/>
  <outline>
    <contour>
      <point x="331.0" y="320.0" type="curve" smooth="yes"/>
      <point x="331.0" y="280.0"/>
      <point x="344.0" y="258.0"/>
      <point x="365.0" y="258.0" type="curve" smooth="yes"/>
      <point x="395.0" y="258.0"/>
      <point x="426.0" y="305.0"/>
      <point x="426.0" y="362.0" type="curve" smooth="yes"/>
      <point x="426.0" y="406.0"/>
      <point x="413.0" y="424.0"/>
      <point x="391.0" y="424.0" type="curve" smooth="yes"/>
      <point x="357.0" y="424.0"/>
      <point x="331.0" y="374.0"/>
    </contour>
    <contour>
      <point x="198.0" y="312.0" type="curve" smooth="yes"/>
      <point x="198.0" y="451.0"/>
      <point x="277.0" y="530.0"/>
      <point x="354.0" y="530.0" type="curve" smooth="yes"/>
      <point x="422.0" y="530.0"/>
      <point x="476.0" y="457.0"/>
      <point x="476.0" y="370.0" type="curve" smooth="yes"/>
      <point x="476.0" y="231.0"/>
      <point x="406.0" y="152.0"/>
      <point x="328.0" y="152.0" type="curve" smooth="yes"/>
      <point x="246.0" y="152.0"/>
      <point x="198.0" y="213.0"/>
    </contour>
    <contour>
      <point x="14.0" y="320.0" type="curve" smooth="yes"/>
      <point x="14.0" y="547.0"/>
      <point x="183.0" y="726.0"/>
      <point x="415.0" y="726.0" type="curve" smooth="yes"/>
      <point x="629.0" y="726.0"/>
      <point x="756.0" y="557.0"/>
      <point x="756.0" y="390.0" type="curve" smooth="yes"/>
      <point x="756.0" y="212.0"/>
      <point x="660.0" y="152.0"/>
      <point x="570.0" y="152.0" type="curve" smooth="yes"/>
      <point x="501.0" y="152.0"/>
      <point x="432.0" y="196.0"/>
      <point x="442.0" y="262.0" type="curve"/>
      <point x="426.0" y="302.0" type="line"/>
      <point x="446.0" y="520.0" type="line"/>
      <point x="565.0" y="520.0" type="line"/>
      <point x="544.0" y="314.0" type="line" smooth="yes"/>
      <point x="543.0" y="307.0"/>
      <point x="542.0" y="294.0"/>
      <point x="542.0" y="286.0" type="curve" smooth="yes"/>
      <point x="542.0" y="262.0"/>
      <point x="558.0" y="253.0"/>
      <point x="574.0" y="253.0" type="curve" smooth="yes"/>
      <point x="596.0" y="253.0"/>
      <point x="632.0" y="272.0"/>
      <point x="632.0" y="390.0" type="curve" smooth="yes"/>
      <point x="632.0" y="525.0"/>
      <point x="569.0" y="616.0"/>
      <point x="415.0" y="616.0" type="curve" smooth="yes"/>
      <point x="243.0" y="616.0"/>
      <point x="138.0" y="495.0"/>
      <point x="138.0" y="320.0" type="curve" smooth="yes"/>
      <point x="138.0" y="174.0"/>
      <point x="216.0" y="80.0"/>
      <point x="382.0" y="80.0" type="curve" smooth="yes"/>
      <point x="452.0" y="80.0"/>
      <point x="505.0" y="96.0"/>
      <point x="561.0" y="122.0" type="curve"/>
      <point x="598.0" y="22.0" type="line"/>
      <point x="538.0" y="-11.0"/>
      <point x="463.0" y="-30.0"/>
      <point x="365.0" y="-30.0" type="curve" smooth="yes"/>
      <point x="135.0" y="-30.0"/>
      <point x="14.0" y="121.0"/>
    </contour>
  </outline>
</glyph>
<glyph name="A" format="2">
  <advance width="794"/>
  <unicode hex="0041"/>
  <outline>
    <contour>
      <point x="179.0" y="162.0" type="line"/>
      <point x="209.0" y="290.0" type="line"/>
      <point x="599.0" y="290.0" type="line"/>
      <point x="629.0" y="162.0" type="line"/>
    </contour>
    <contour>
      <point x="397.0" y="561.0" type="line"/>
      <point x="182.0" y="0.0" type="line"/>
      <point x="10.0" y="0.0" type="line"/>
      <point x="295.0" y="700.0" type="line"/>
      <point x="499.0" y="700.0" type="line"/>
      <point x="784.0" y="0.0" type="line"/>
      <point x="612.0" y="0.0" type="line"/>
    </contour>
  </outline>
</glyph>
<glyph name="B" format="2">
  <advance width="803"/>
  <unicode hex="0042"/>
  <outline>
    <contour>
      <point x="156.0" y="341.0" type="line"/>
      <point x="156.0" y="435.0" type="line"/>
      <point x="475.0" y="435.0" type="line" smooth="yes"/>
      <point x="545.0" y="435.0"/>
      <point x="575.0" y="453.0"/>
      <point x="575.0" y="499.0" type="curve" smooth="yes"/>
      <point x="575.0" y="538.0"/>
      <point x="545.0" y="560.0"/>
      <point x="485.0" y="560.0" type="curve" smooth="yes"/>
      <point x="239.0" y="560.0" type="line"/>
      <point x="239.0" y="140.0" type="line"/>
      <point x="490.0" y="140.0" type="line" smooth="yes"/>
      <point x="550.0" y="140.0"/>
      <point x="593.0" y="159.0"/>
      <point x="593.0" y="225.0" type="curve" smooth="yes"/>
      <point x="593.0" y="281.0"/>
      <point x="550.0" y="305.0"/>
      <point x="490.0" y="305.0" type="curve" smooth="yes"/>
      <point x="156.0" y="305.0" type="line"/>
      <point x="156.0" y="376.0" type="line"/>
      <point x="525.0" y="376.0" type="line" smooth="yes"/>
      <point x="670.0" y="376.0"/>
      <point x="753.0" y="309.0"/>
      <point x="753.0" y="190.0" type="curve" smooth="yes"/>
      <point x="753.0" y="71.0"/>
      <point x="670.0" y="0.0"/>
      <point x="525.0" y="0.0" type="curve" smooth="yes"/>
      <point x="85.0" y="0.0" type="line"/>
      <point x="85.0" y="700.0" type="line"/>
      <point x="505.0" y="700.0" type="line" smooth="yes"/>
      <point x="650.0" y="700.0"/>
      <point x="735.0" y="629.0"/>
      <point x="735.0" y="520.0" type="curve" smooth="yes"/>
      <point x="735.0" y="374.0"/>
      <point x="600.0" y="341.0"/>
      <point x="495.0" y="341.0" type="curve" smooth="yes"/>
    </contour>
  </outline>
</glyph>
<glyph name="D" format="2">
  <advance width="852"/>
  <unicode hex="0044"/>
  <outline>
    <contour>
      <point x="85.0" y="700.0" type="line"/>
      <point x="255.0" y="700.0" type="line"/>
      <point x="255.0" y="0.0" type="line"/>
      <point x="85.0" y="0.0" type="line"/>
    </contour>
    <contour>
      <point x="447.0" y="0.0" type="curve" smooth="yes"/>
      <point x="132.0" y="0.0" type="line"/>
      <point x="132.0" y="140.0" type="line"/>
      <point x="427.0" y="140.0" type="line" smooth="yes"/>
      <point x="555.0" y="140.0"/>
      <point x="627.0" y="217.0"/>
      <point x="627.0" y="350.0" type="curve" smooth="yes"/>
      <point x="627.0" y="483.0"/>
      <point x="555.0" y="560.0"/>
      <point x="427.0" y="560.0" type="curve" smooth="yes"/>
      <point x="132.0" y="560.0" type="line"/>
      <point x="132.0" y="700.0" type="line"/>
      <point x="447.0" y="700.0" type="line" smooth="yes"/>
      <point x="651.0" y="700.0"/>
      <point x="797.0" y="569.0"/>
      <point x="797.0" y="350.0" type="curve" smooth="yes"/>
      <point x="797.0" y="131.0"/>
      <point x="651.0" y="0.0"/>
    </contour>
  </outline>
</glyph>
<glyph name="E" format="2">
  <advance width="746"/>
  <unicode hex="0045"/>
  <outline>
    <contour>
      <point x="157.0" y="0.0" type="line"/>
      <point x="157.0" y="140.0" type="line"/>
      <point x="701.0" y="140.0" type="line"/>
      <point x="701.0" y="0.0" type="line"/>
    </contour>
    <contour>
      <point x="157.0" y="560.0" type="line"/>
      <point x="157.0" y="700.0" type="line"/>
      <point x="701.0" y="700.0" type="line"/>
      <point x="701.0" y="560.0" type="line"/>
    </contour>
    <contour>
      <point x="157.0" y="290.0" type="line"/>
      <point x="157.0" y="425.0" type="line"/>
      <point x="531.0" y="425.0" type="line"/>
      <point x="531.0" y="290.0" type="line"/>
    </contour>
    <contour>
      <point x="85.0" y="700.0" type="line"/>
      <point x="245.0" y="700.0" type="line"/>
      <point x="245.0" y="0.0" type="line"/>
      <point x="85.0" y="0.0" type="line"/>
    </contour>
  </outline>
</glyph>
<glyph name="F" format="2">
  <advance width="731"/>
  <unicode hex="0046"/>
  <outline>
    <contour>
      <point x="157.0" y="560.0" type="line"/>
      <point x="157.0" y="700.0" type="line"/>
      <point x="701.0" y="700.0" type="line"/>
      <point x="701.0" y="560.0" type="line"/>
    </contour>
    <contour>
      <point x="157.0" y="290.0" type="line"/>
      <point x="157.0" y="425.0" type="line"/>
      <point x="541.0" y="425.0" type="line"/>
      <point x="541.0" y="290.0" type="line"/>
    </contour>
    <contour>
      <point x="85.0" y="700.0" type="line"/>
      <point x="245.0" y="700.0" type="line"/>
      <point x="245.0" y="0.0" type="line"/>
      <point x="85.0" y="0.0" type="line"/>
    </contour>
  </outline>
</glyph>
<glyph name="G" format="2">
  <advance width="875"/>
  <unicode hex="0047"/>
  <outline>
    <contour>
      <point x="805.0" y="380.0" type="line"/>
      <point x="805.0" y="255.0" type="line"/>
      <point x="472.0" y="255.0" type="line"/>
      <point x="472.0" y="380.0" type="line"/>
    </contour>
    <contour>
      <point x="650.0" y="380.0" type="line"/>
      <point x="805.0" y="380.0" type="line"/>
      <point x="805.0" y="85.0" type="line"/>
      <point x="650.0" y="85.0" type="line"/>
    </contour>
    <contour>
      <point x="215.0" y="350.0" type="curve" smooth="yes"/>
      <point x="215.0" y="212.0"/>
      <point x="309.0" y="130.0"/>
      <point x="475.0" y="130.0" type="curve" smooth="yes"/>
      <point x="574.0" y="130.0"/>
      <point x="646.0" y="170.0"/>
      <point x="705.0" y="212.0" type="curve"/>
      <point x="805.0" y="85.0" type="line"/>
      <point x="736.0" y="43.0"/>
      <point x="647.0" y="-10.0"/>
      <point x="475.0" y="-10.0" type="curve" smooth="yes"/>
      <point x="231.0" y="-10.0"/>
      <point x="50.0" y="126.0"/>
      <point x="50.0" y="350.0" type="curve" smooth="yes"/>
      <point x="50.0" y="574.0"/>
      <point x="231.0" y="710.0"/>
      <point x="475.0" y="710.0" type="curve" smooth="yes"/>
      <point x="647.0" y="710.0"/>
      <point x="741.0" y="647.0"/>
      <point x="800.0" y="605.0" type="curve"/>
      <point x="708.0" y="486.0" type="line"/>
      <point x="659.0" y="528.0"/>
      <point x="584.0" y="570.0"/>
      <point x="475.0" y="570.0" type="curve" smooth="yes"/>
      <point x="309.0" y="570.0"/>
      <point x="215.0" y="488.0"/>
    </contour>
  </outline>
</glyph>
<glyph name="H" format="2">
  <advance width="835"/>
  <unicode hex="0048"/>
  <outline>
    <contour>
      <point x="595.0" y="700.0" type="line"/>
      <point x="750.0" y="700.0" type="line"/>
      <point x="750.0" y="0.0" type="line"/>
      <point x="595.0" y="0.0" type="line"/>
    </contour>
    <contour>
      <point x="147.0" y="290.0" type="line"/>
      <point x="147.0" y="425.0" type="line"/>
      <point x="720.0" y="425.0" type="line"/>
      <point x="720.0" y="290.0" type="line"/>
    </contour>
    <contour>
      <point x="85.0" y="700.0" type="line"/>
      <point x="240.0" y="700.0" type="line"/>
      <point x="240.0" y="0.0" type="line"/>
      <point x="85.0" y="0.0" type="line"/>
    </contour>
  </outline>
</glyph>
<glyph name="I" format="2">
  <advance width="340"/>
  <unicode hex="0049"/>
  <outline>
    <contour>
      <point x="85.0" y="700.0" type="line"/>
      <point x="255.0" y="700.0" type="line"/>
      <point x="255.0" y="0.0" type="line"/>
      <point x="85.0" y="0.0" type="line"/>
    </contour>
  </outline>
</glyph>
<glyph name="J" format="2">
  <advance width="622"/>
  <unicode hex="004A"/>
  <outline>
    <contour>
      <point x="80.0" y="211.0" type="line"/>
      <point x="114.0" y="180.0"/>
      <point x="185.0" y="125.0"/>
      <point x="281.0" y="125.0" type="curve" smooth="yes"/>
      <point x="351.0" y="125.0"/>
      <point x="377.0" y="156.0"/>
      <point x="377.0" y="215.0" type="curve" smooth="yes"/>
      <point x="377.0" y="700.0" type="line"/>
      <point x="542.0" y="700.0" type="line"/>
      <point x="542.0" y="180.0" type="line" smooth="yes"/>
      <point x="542.0" y="41.0"/>
      <point x="428.0" y="-20.0"/>
      <point x="274.0" y="-20.0" type="curve" smooth="yes"/>
      <point x="171.0" y="-20.0"/>
      <point x="61.0" y="30.0"/>
      <point x="16.0" y="70.0" type="curve"/>
    </contour>
  </outline>
</glyph>
<glyph name="K" format="2">
  <advance width="795"/>
  <unicode hex="004B"/>
  <outline>
    <contour>
      <point x="355.0" y="380.0" type="line"/>
      <point x="465.0" y="488.0" type="line"/>
      <point x="775.0" y="0.0" type="line"/>
      <point x="576.0" y="0.0" type="line"/>
    </contour>
    <contour>
      <point x="552.0" y="700.0" type="line"/>
      <point x="760.0" y="700.0" type="line"/>
      <point x="180.0" y="150.0" type="line"/>
      <point x="120.0" y="249.0" type="line"/>
    </contour>
    <contour>
      <point x="85.0" y="700.0" type="line"/>
      <point x="245.0" y="700.0" type="line"/>
      <point x="245.0" y="0.0" type="line"/>
      <point x="85.0" y="0.0" type="line"/>
    </contour>
  </outline>
</glyph>
<glyph name="M" format="2">
  <advance width="930"/>
  <unicode hex="004D"/>
  <outline>
    <contour>
      <point x="235.0" y="490.0" type="line"/>
      <point x="235.0" y="700.0" type="line"/>
      <point x="290.0" y="700.0" type="line"/>
      <point x="465.0" y="323.0" type="line"/>
      <point x="640.0" y="700.0" type="line"/>
      <point x="695.0" y="700.0" type="line"/>
      <point x="695.0" y="490.0" type="line"/>
      <point x="465.0" y="-10.0" type="line"/>
    </contour>
    <contour>
      <point x="695.0" y="700.0" type="line"/>
      <point x="845.0" y="700.0" type="line"/>
      <point x="845.0" y="0.0" type="line"/>
      <point x="695.0" y="0.0" type="line"/>
    </contour>
    <contour>
      <point x="85.0" y="700.0" type="line"/>
      <point x="235.0" y="700.0" type="line"/>
      <point x="235.0" y="0.0" type="line"/>
      <point x="85.0" y="0.0" type="line"/>
    </contour>
  </outline>
</glyph>
<glyph name="N" format="2">
  <advance width="870"/>
  <unicode hex="004E"/>
  <outline>
    <contour>
      <point x="233.0" y="500.0" type="line"/>
      <point x="235.0" y="700.0" type="line"/>
      <point x="265.0" y="700.0" type="line"/>
      <point x="635.0" y="233.0" type="line"/>
      <point x="625.0" y="0.0" type="line"/>
    </contour>
    <contour>
      <point x="635.0" y="700.0" type="line"/>
      <point x="785.0" y="700.0" type="line"/>
      <point x="785.0" y="0.0" type="line"/>
      <point x="625.0" y="0.0" type="line"/>
      <point x="635.0" y="233.0" type="line"/>
    </contour>
    <contour>
      <point x="85.0" y="700.0" type="line"/>
      <point x="235.0" y="700.0" type="line"/>
      <point x="235.0" y="0.0" type="line"/>
      <point x="85.0" y="0.0" type="line"/>
    </contour>
  </outline>
</glyph>
<glyph name="O" format="2">
  <advance width="910"/>
  <unicode hex="004F"/>
  <outline>
    <contour>
      <point x="215.0" y="350.0" type="curve" smooth="yes"/>
      <point x="215.0" y="206.0"/>
      <point x="322.0" y="130.0"/>
      <point x="455.0" y="130.0" type="curve" smooth="yes"/>
      <point x="588.0" y="130.0"/>
      <point x="695.0" y="206.0"/>
      <point x="695.0" y="350.0" type="curve" smooth="yes"/>
      <point x="695.0" y="494.0"/>
      <point x="588.0" y="570.0"/>
      <point x="455.0" y="570.0" type="curve" smooth="yes"/>
      <point x="322.0" y="570.0"/>
      <point x="215.0" y="494.0"/>
    </contour>
    <contour>
      <point x="50.0" y="350.0" type="curve" smooth="yes"/>
      <point x="50.0" y="584.0"/>
      <point x="236.0" y="710.0"/>
      <point x="455.0" y="710.0" type="curve" smooth="yes"/>
      <point x="674.0" y="710.0"/>
      <point x="860.0" y="584.0"/>
      <point x="860.0" y="350.0" type="curve" smooth="yes"/>
      <point x="860.0" y="116.0"/>
      <point x="674.0" y="-10.0"/>
      <point x="455.0" y="-10.0" type="curve" smooth="yes"/>
      <point x="236.0" y="-10.0"/>
      <point x="50.0" y="116.0"/>
    </contour>
  </outline>
</glyph>
<glyph name="P" format="2">
  <advance width="753"/>
  <unicode hex="0050"/>
  <outline>
    <contour>
      <point x="85.0" y="700.0" type="line"/>
      <point x="245.0" y="700.0" type="line"/>
      <point x="245.0" y="0.0" type="line"/>
      <point x="85.0" y="0.0" type="line"/>
    </contour>
    <contour>
      <point x="132.0" y="560.0" type="line"/>
      <point x="132.0" y="700.0" type="line"/>
      <point x="480.0" y="700.0" type="line" smooth="yes"/>
      <point x="605.0" y="700.0"/>
      <point x="718.0" y="654.0"/>
      <point x="718.0" y="480.0" type="curve" smooth="yes"/>
      <point x="718.0" y="307.0"/>
      <point x="605.0" y="260.0"/>
      <point x="480.0" y="260.0" type="curve" smooth="yes"/>
      <point x="132.0" y="260.0" type="line"/>
      <point x="132.0" y="400.0" type="line"/>
      <point x="470.0" y="400.0" type="line" smooth="yes"/>
      <point x="519.0" y="400.0"/>
      <point x="553.0" y="414.0"/>
      <point x="553.0" y="480.0" type="curve" smooth="yes"/>
      <point x="553.0" y="546.0"/>
      <point x="519.0" y="560.0"/>
      <point x="470.0" y="560.0" type="curve" smooth="yes"/>
    </contour>
  </outline>
</glyph>
<glyph name="Q" format="2">
  <advance width="870"/>
  <unicode hex="0051"/>
  <outline>
    <contour>
      <point x="50.0" y="350.0" type="curve" smooth="yes"/>
      <point x="50.0" y="574.0"/>
      <point x="216.0" y="710.0"/>
      <point x="435.0" y="710.0" type="curve" smooth="yes"/>
      <point x="654.0" y="710.0"/>
      <point x="820.0" y="574.0"/>
      <point x="820.0" y="350.0" type="curve" smooth="yes"/>
      <point x="820.0" y="126.0"/>
      <point x="654.0" y="-10.0"/>
      <point x="435.0" y="-10.0" type="curve" smooth="yes"/>
      <point x="216.0" y="-10.0"/>
      <point x="50.0" y="126.0"/>
    </contour>
    <contour>
      <point x="215.0" y="350.0" type="curve" smooth="yes"/>
      <point x="215.0" y="206.0"/>
      <point x="292.0" y="125.0"/>
      <point x="435.0" y="125.0" type="curve" smooth="yes"/>
      <point x="578.0" y="125.0"/>
      <point x="655.0" y="206.0"/>
      <point x="655.0" y="350.0" type="curve" smooth="yes"/>
      <point x="655.0" y="494.0"/>
      <point x="578.0" y="575.0"/>
      <point x="435.0" y="575.0" type="curve" smooth="yes"/>
      <point x="292.0" y="575.0"/>
      <point x="215.0" y="494.0"/>
    </contour>
    <contour>
      <point x="426.0" y="232.0" type="curve" smooth="yes"/>
      <point x="586.0" y="232.0"/>
      <point x="593.0" y="0.0"/>
      <point x="763.0" y="-10.0" type="curve"/>
      <point x="666.0" y="-101.0" type="line"/>
      <point x="513.0" y="-42.0"/>
      <point x="480.0" y="175.0"/>
      <point x="380.0" y="175.0" type="curve" smooth="yes"/>
      <point x="351.0" y="175.0"/>
      <point x="326.0" y="162.0"/>
      <point x="326.0" y="127.0" type="curve"/>
      <point x="311.0" y="127.0" type="line"/>
      <point x="311.0" y="177.0"/>
      <point x="351.0" y="232.0"/>
    </contour>
  </outline>
</glyph>
<glyph name="R" format="2">
  <advance width="785"/>
  <unicode hex="0052"/>
  <outline>
    <contour>
      <point x="85.0" y="700.0" type="line"/>
      <point x="245.0" y="700.0" type="line"/>
      <point x="245.0" y="0.0" type="line"/>
      <point x="85.0" y="0.0" type="line"/>
    </contour>
    <contour>
      <point x="132.0" y="560.0" type="line"/>
      <point x="132.0" y="700.0" type="line"/>
      <point x="505.0" y="700.0" type="line" smooth="yes"/>
      <point x="630.0" y="700.0"/>
      <point x="743.0" y="644.0"/>
      <point x="743.0" y="490.0" type="curve" smooth="yes"/>
      <point x="743.0" y="337.0"/>
      <point x="630.0" y="295.0"/>
      <point x="505.0" y="295.0" type="curve" smooth="yes"/>
      <point x="132.0" y="295.0" type="line"/>
      <point x="132.0" y="420.0" type="line"/>
      <point x="495.0" y="420.0" type="line" smooth="yes"/>
      <point x="559.0" y="420.0"/>
      <point x="588.0" y="444.0"/>
      <point x="588.0" y="490.0" type="curve" smooth="yes"/>
      <point x="588.0" y="536.0"/>
      <point x="559.0" y="560.0"/>
      <point x="495.0" y="560.0" type="curve" smooth="yes"/>
    </contour>
    <contour>
      <point x="345.0" y="360.0" type="line"/>
      <point x="505.0" y="360.0" type="line"/>
      <point x="760.0" y="0.0" type="line"/>
      <point x="555.0" y="0.0" type="line"/>
    </contour>
  </outline>
</glyph>
<glyph name="S" format="2">
  <advance width="764"/>
  <unicode hex="0053"/>
  <outline>
    <contour>
      <point x="98.0" y="219.0" type="line"/>
      <point x="164.0" y="175.0"/>
      <point x="251.0" y="133.0"/>
      <point x="395.0" y="133.0" type="curve" smooth="yes"/>
      <point x="520.0" y="133.0"/>
      <point x="581.0" y="156.0"/>
      <point x="581.0" y="211.0" type="curve" smooth="yes"/>
      <point x="581.0" y="266.0"/>
      <point x="518.91796875" y="283.310546875"/>
      <point x="369.0" y="295.0" type="curve" smooth="yes"/>
      <point x="155.212560004" y="311.669504526"/>
      <point x="62.0" y="374.0"/>
      <point x="62.0" y="501.0" type="curve" smooth="yes"/>
      <point x="62.0" y="655.0"/>
      <point x="211.0" y="720.0"/>
      <point x="390.0" y="720.0" type="curve" smooth="yes"/>
      <point x="543.0" y="720.0"/>
      <point x="638.0" y="679.0"/>
      <point x="703.0" y="635.0" type="curve"/>
      <point x="631.0" y="521.0" type="line"/>
      <point x="584.0" y="551.0"/>
      <point x="492.0" y="580.0"/>
      <point x="380.0" y="580.0" type="curve" smooth="yes"/>
      <point x="274.0" y="580.0"/>
      <point x="222.0" y="550.0"/>
      <point x="222.0" y="508.0" type="curve" smooth="yes"/>
      <point x="222.0" y="452.0"/>
      <point x="278.201171875" y="438.491210938"/>
      <point x="438.0" y="426.0" type="curve" smooth="yes"/>
      <point x="641.58984375" y="410.0859375"/>
      <point x="734.0" y="352.0"/>
      <point x="734.0" y="210.0" type="curve" smooth="yes"/>
      <point x="734.0" y="62.0"/>
      <point x="590.5859375" y="-12.8974609375"/>
      <point x="390.0" y="-10.0" type="curve" smooth="yes"/>
      <point x="215.659179688" y="-7.4814453125"/>
      <point x="105.0" y="37.1396484375"/>
      <point x="50.0" y="82.0" type="curve"/>
    </contour>
  </outline>
</glyph>
<glyph name="T" format="2">
  <advance width="705"/>
  <unicode hex="0054"/>
  <outline>
    <contour>
      <point x="10.0" y="565.0" type="line"/>
      <point x="10.0" y="700.0" type="line"/>
      <point x="695.0" y="700.0" type="line"/>
      <point x="695.0" y="565.0" type="line"/>
    </contour>
    <contour>
      <point x="275.0" y="700.0" type="line"/>
      <point x="430.0" y="700.0" type="line"/>
      <point x="430.0" y="0.0" type="line"/>
      <point x="275.0" y="0.0" type="line"/>
    </contour>
  </outline>
</glyph>
<glyph name="U" format="2">
  <advance width="810"/>
  <unicode hex="0055"/>
  <outline>
    <contour>
      <point x="75.0" y="700.0" type="line"/>
      <point x="230.0" y="700.0" type="line"/>
      <point x="230.0" y="242.0" type="line" smooth="yes"/>
      <point x="230.0" y="156.0"/>
      <point x="295.0" y="120.0"/>
      <point x="405.0" y="120.0" type="curve" smooth="yes"/>
      <point x="525.0" y="120.0"/>
      <point x="580.0" y="156.0"/>
      <point x="580.0" y="242.0" type="curve" smooth="yes"/>
      <point x="580.0" y="700.0" type="line"/>
      <point x="735.0" y="700.0" type="line"/>
      <point x="735.0" y="230.0" type="line" smooth="yes"/>
      <point x="735.0" y="61.0"/>
      <point x="580.0" y="-10.0"/>
      <point x="405.0" y="-10.0" type="curve" smooth="yes"/>
      <point x="230.0" y="-10.0"/>
      <point x="75.0" y="61.0"/>
      <point x="75.0" y="230.0" type="curve" smooth="yes"/>
    </contour>
  </outline>
</glyph>
<glyph name="V" format="2">
  <advance width="794"/>
  <unicode hex="0056"/>
  <outline>
    <contour>
      <point x="397.0" y="139.0" type="line"/>
      <point x="612.0" y="700.0" type="line"/>
      <point x="784.0" y="700.0" type="line"/>
      <point x="499.0" y="0.0" type="line"/>
      <point x="295.0" y="0.0" type="line"/>
      <point x="10.0" y="700.0" type="line"/>
      <point x="182.0" y="700.0" type="line"/>
    </contour>
  </outline>
</glyph>
<glyph name="W" format="2">
  <advance width="1140"/>
  <unicode hex="0057"/>
  <outline>
    <contour>
      <point x="790.0" y="221.0" type="line"/>
      <point x="950.0" y="700.0" type="line"/>
      <point x="1125.0" y="700.0" type="line"/>
      <point x="875.0" y="0.0" type="line"/>
      <point x="725.0" y="0.0" type="line"/>
      <point x="525.0" y="620.0" type="line"/>
      <point x="495.0" y="700.0" type="line"/>
      <point x="645.0" y="700.0" type="line"/>
    </contour>
    <contour>
      <point x="350.0" y="231.0" type="line"/>
      <point x="495.0" y="700.0" type="line"/>
      <point x="645.0" y="700.0" type="line"/>
      <point x="615.0" y="620.0" type="line"/>
      <point x="415.0" y="0.0" type="line"/>
      <point x="265.0" y="0.0" type="line"/>
      <point x="15.0" y="700.0" type="line"/>
      <point x="190.0" y="700.0" type="line"/>
    </contour>
  </outline>
</glyph>
<glyph name="X" format="2">
  <advance width="685"/>
  <unicode hex="0058"/>
  <outline>
    <contour>
      <point x="495.0" y="700.0" type="line"/>
      <point x="675.0" y="700.0" type="line"/>
      <point x="443.0" y="362.0" type="line"/>
      <point x="680.0" y="0.0" type="line"/>
      <point x="500.0" y="0.0" type="line"/>
      <point x="345.0" y="250.0" type="line"/>
      <point x="185.0" y="0.0" type="line"/>
      <point x="5.0" y="0.0" type="line"/>
      <point x="248.0" y="362.0" type="line"/>
      <point x="20.0" y="700.0" type="line"/>
      <point x="200.0" y="700.0" type="line"/>
      <point x="346.0" y="464.0" type="line"/>
    </contour>
  </outline>
</glyph>
<glyph name="Y" format="2">
  <advance width="701"/>
  <unicode hex="0059"/>
  <outline>
    <contour>
      <point x="531.0" y="700.0" type="line"/>
      <point x="706.0" y="700.0" type="line"/>
      <point x="430.0" y="272.0" type="line"/>
      <point x="430.0" y="0.0" type="line"/>
      <point x="266.0" y="0.0" type="line"/>
      <point x="266.0" y="271.0" type="line"/>
      <point x="-5.0" y="700.0" type="line"/>
      <point x="175.0" y="700.0" type="line"/>
      <point x="348.0" y="396.0" type="line"/>
    </contour>
  </outline>
</glyph>
<glyph name="Z" format="2">
  <advance width="744"/>
  <unicode hex="005A"/>
  <outline>
    <contour>
      <point x="40.0" y="560.0" type="line"/>
      <point x="40.0" y="700.0" type="line"/>
      <point x="699.0" y="700.0" type="line"/>
      <point x="699.0" y="685.0" type="line"/>
      <point x="300.0" y="140.0" type="line"/>
      <point x="685.0" y="140.0" type="line"/>
      <point x="685.0" y="0.0" type="line"/>
      <point x="30.0" y="0.0" type="line"/>
      <point x="30.0" y="15.0" type="line"/>
      <point x="432.0" y="560.0" type="line"/>
    </contour>
  </outline>
</glyph>
<glyph name="bracketleft" format="2">
  <advance width="371"/>
  <unicode hex="005B"/>
  <outline>
    <contour>
      <point x="250.0" y="640.0" type="line"/>
      <point x="250.0" y="-80.0" type="line"/>
      <point x="351.0" y="-80.0" type="line"/>
      <point x="351.0" y="-220.0" type="line"/>
      <point x="100.0" y="-220.0" type="line"/>
      <point x="100.0" y="780.0" type="line"/>
      <point x="351.0" y="780.0" type="line"/>
      <point x="351.0" y="640.0" type="line"/>
    </contour>
  </outline>
</glyph>
<glyph name="backslash" format="2">
  <advance width="665"/>
  <unicode hex="005C"/>
  <outline>
    <contour>
      <point x="55.0" y="700.0" type="line"/>
      <point x="215.0" y="700.0" type="line"/>
      <point x="610.0" y="0.0" type="line"/>
      <point x="450.0" y="0.0" type="line"/>
    </contour>
  </outline>
</glyph>
<glyph name="bracketright" format="2">
  <advance width="371"/>
  <unicode hex="005D"/>
  <outline>
    <contour>
      <point x="121.0" y="-90.0" type="line"/>
      <point x="121.0" y="640.0" type="line"/>
      <point x="20.0" y="640.0" type="line"/>
      <point x="20.0" y="780.0" type="line"/>
      <point x="271.0" y="780.0" type="line"/>
      <point x="271.0" y="-220.0" type="line"/>
      <point x="20.0" y="-220.0" type="line"/>
      <point x="20.0" y="-90.0" type="line"/>
    </contour>
  </outline>
</glyph>
<glyph name="asciicircum" format="2">
  <advance width="610"/>
  <unicode hex="005E"/>
  <outline>
    <contour>
      <point x="305.0" y="601.0" type="line"/>
      <point x="205.0" y="460.0" type="line"/>
      <point x="45.0" y="460.0" type="line"/>
      <point x="225.0" y="710.0" type="line"/>
      <point x="385.0" y="710.0" type="line"/>
      <point x="565.0" y="460.0" type="line"/>
      <point x="405.0" y="460.0" type="line"/>
    </contour>
  </outline>
</glyph>
<glyph name="grave" format="2">
  <advance width="375"/>
  <unicode hex="0060"/>
  <outline>
    <contour>
      <point x="61.0" y="646.0" type="line"/>
      <point x="180.0" y="735.0" type="line"/>
      <point x="330.0" y="575.0" type="line"/>
      <point x="241.0" y="496.0" type="line"/>
    </contour>
  </outline>
</glyph>
<glyph name="braceleft" format="2">
  <advance width="381"/>
  <unicode hex="007B"/>
  <outline>
    <contour>
      <point x="248.0" y="600.0" type="curve" smooth="yes"/>
      <point x="248.0" y="490.0" type="line" smooth="yes"/>
      <point x="248.0" y="371.0"/>
      <point x="174.0" y="260.0"/>
      <point x="65.0" y="260.0" type="curve"/>
      <point x="65.0" y="320.0" type="line"/>
      <point x="174.0" y="320.0"/>
      <point x="248.0" y="209.0"/>
      <point x="248.0" y="90.0" type="curve" smooth="yes"/>
      <point x="248.0" y="-20.0" type="line" smooth="yes"/>
      <point x="248.0" y="-46.0"/>
      <point x="266.0" y="-70.0"/>
      <point x="296.0" y="-70.0" type="curve" smooth="yes"/>
      <point x="331.0" y="-70.0" type="line"/>
      <point x="331.0" y="-200.0" type="line"/>
      <point x="271.0" y="-200.0" type="line" smooth="yes"/>
      <point x="187.0" y="-200.0"/>
      <point x="98.0" y="-159.0"/>
      <point x="98.0" y="-60.0" type="curve" smooth="yes"/>
      <point x="98.0" y="120.0" type="line" smooth="yes"/>
      <point x="98.0" y="186.0"/>
      <point x="80.0" y="205.0"/>
      <point x="50.0" y="215.0" type="curve"/>
      <point x="50.0" y="375.0" type="line"/>
      <point x="80.0" y="385.0"/>
      <point x="98.0" y="404.0"/>
      <point x="98.0" y="470.0" type="curve" smooth="yes"/>
      <point x="98.0" y="640.0" type="line" smooth="yes"/>
      <point x="98.0" y="739.0"/>
      <point x="187.0" y="780.0"/>
      <point x="271.0" y="780.0" type="curve" smooth="yes"/>
      <point x="331.0" y="780.0" type="line"/>
      <point x="331.0" y="650.0" type="line"/>
      <point x="296.0" y="650.0" type="line" smooth="yes"/>
      <point x="266.0" y="650.0"/>
      <point x="248.0" y="626.0"/>
    </contour>
  </outline>
</glyph>
<glyph name="bar" format="2">
  <advance width="344"/>
  <unicode hex="007C"/>
  <outline>
    <contour>
      <point x="100.0" y="780.0" type="line"/>
      <point x="244.0" y="780.0" type="line"/>
      <point x="244.0" y="-220.0" type="line"/>
      <point x="100.0" y="-220.0" type="line"/>
    </contour>
  </outline>
</glyph>
<glyph name="braceright" format="2">
  <advance width="381"/>
  <unicode hex="007D"/>
  <outline>
    <contour>
      <point x="133.0" y="-20.0" type="curve" smooth="yes"/>
      <point x="133.0" y="90.0" type="line" smooth="yes"/>
      <point x="133.0" y="209.0"/>
      <point x="207.0" y="320.0"/>
      <point x="316.0" y="320.0" type="curve"/>
      <point x="316.0" y="260.0" type="line"/>
      <point x="207.0" y="260.0"/>
      <point x="133.0" y="371.0"/>
      <point x="133.0" y="490.0" type="curve" smooth="yes"/>
      <point x="133.0" y="600.0" type="line" smooth="yes"/>
      <point x="133.0" y="626.0"/>
      <point x="115.0" y="650.0"/>
      <point x="85.0" y="650.0" type="curve" smooth="yes"/>
      <point x="50.0" y="650.0" type="line"/>
      <point x="50.0" y="780.0" type="line"/>
      <point x="110.0" y="780.0" type="line" smooth="yes"/>
      <point x="194.0" y="780.0"/>
      <point x="283.0" y="739.0"/>
      <point x="283.0" y="640.0" type="curve" smooth="yes"/>
      <point x="283.0" y="460.0" type="line" smooth="yes"/>
      <point x="283.0" y="394.0"/>
      <point x="301.0" y="375.0"/>
      <point x="331.0" y="365.0" type="curve"/>
      <point x="331.0" y="205.0" type="line"/>
      <point x="301.0" y="195.0"/>
      <point x="283.0" y="176.0"/>
      <point x="283.0" y="110.0" type="curve" smooth="yes"/>
      <point x="283.0" y="-60.0" type="line" smooth="yes"/>
      <point x="283.0" y="-159.0"/>
      <point x="194.0" y="-200.0"/>
      <point x="110.0" y="-200.0" type="curve" smooth="yes"/>
      <point x="50.0" y="-200.0" type="line"/>
      <point x="50.0" y="-70.0" type="line"/>
      <point x="85.0" y="-70.0" type="line" smooth="yes"/>
      <point x="115.0" y="-70.0"/>
      <point x="133.0" y="-46.0"/>
    </contour>
  </outline>
</glyph>
<glyph name="asciitilde" format="2">
  <advance width="595"/>
  <unicode hex="007E"/>
  <outline>
    <contour>
      <point x="197.0" y="176.0" type="curve"/>
      <point x="63.0" y="176.0" type="line"/>
      <point x="61.0" y="183.0"/>
      <point x="60.0" y="206.0"/>
      <point x="60.0" y="215.0" type="curve" smooth="yes"/>
      <point x="60.0" y="236.0"/>
      <point x="66.0" y="271.0"/>
      <point x="84.0" y="295.0" type="curve" smooth="yes"/>
      <point x="110.0" y="330.0"/>
      <point x="137.0" y="347.0"/>
      <point x="189.0" y="347.0" type="curve" smooth="yes"/>
      <point x="238.0" y="347.0"/>
      <point x="270.41015625" y="328.84765625"/>
      <point x="307.0" y="304.0" type="curve" smooth="yes"/>
      <point x="335.127929688" y="284.8984375"/>
      <point x="352.0" y="277.0"/>
      <point x="370.0" y="277.0" type="curve" smooth="yes"/>
      <point x="394.0" y="277.0"/>
      <point x="402.0" y="284.0"/>
      <point x="402.0" y="301.0" type="curve" smooth="yes"/>
      <point x="402.0" y="309.0"/>
      <point x="399.0" y="313.0"/>
      <point x="395.0" y="323.0" type="curve"/>
      <point x="531.0" y="323.0" type="line"/>
      <point x="533.0" y="315.0"/>
      <point x="535.0" y="290.0"/>
      <point x="535.0" y="280.0" type="curve" smooth="yes"/>
      <point x="535.0" y="260.0"/>
      <point x="530.0" y="222.0"/>
      <point x="513.0" y="199.0" type="curve" smooth="yes"/>
      <point x="487.0" y="165.0"/>
      <point x="465.0" y="152.0"/>
      <point x="419.0" y="152.0" type="curve" smooth="yes"/>
      <point x="375.0" y="152.0"/>
      <point x="332.0" y="174.0"/>
      <point x="299.0" y="195.0" type="curve" smooth="yes"/>
      <point x="267.108398438" y="215.294921875"/>
      <point x="238.0" y="228.0"/>
      <point x="223.0" y="228.0" type="curve" smooth="yes"/>
      <point x="202.0" y="228.0"/>
      <point x="188.0" y="218.0"/>
      <point x="188.0" y="203.0" type="curve" smooth="yes"/>
      <point x="188.0" y="196.0"/>
      <point x="191.0" y="184.0"/>
    </contour>
  </outline>
</glyph>
<glyph name="cent" format="2">
  <advance width="845"/>
  <unicode hex="00A2"/>
  <outline>
    <contour>
      <point x="465.0" y="740.0" type="line"/>
      <point x="505.0" y="740.0" type="line"/>
      <point x="505.0" y="-80.0" type="line"/>
      <point x="465.0" y="-80.0" type="line"/>
    </contour>
    <contour>
      <point x="325.0" y="740.0" type="line"/>
      <point x="365.0" y="740.0" type="line"/>
      <point x="365.0" y="-80.0" type="line"/>
      <point x="325.0" y="-80.0" type="line"/>
    </contour>
    <contour>
      <point x="205.0" y="350.0" type="curve" smooth="yes"/>
      <point x="205.0" y="212.0"/>
      <point x="277.0" y="130.0"/>
      <point x="425.0" y="130.0" type="curve" smooth="yes"/>
      <point x="514.0" y="130.0"/>
      <point x="579.0" y="180.0"/>
      <point x="638.0" y="232.0" type="curve"/>
      <point x="730.0" y="115.0" type="line"/>
      <point x="661.0" y="63.0"/>
      <point x="587.0" y="-10.0"/>
      <point x="425.0" y="-10.0" type="curve" smooth="yes"/>
      <point x="182.0" y="-10.0"/>
      <point x="40.0" y="136.0"/>
      <point x="40.0" y="350.0" type="curve" smooth="yes"/>
      <point x="40.0" y="564.0"/>
      <point x="182.0" y="710.0"/>
      <point x="425.0" y="710.0" type="curve" smooth="yes"/>
      <point x="587.0" y="710.0"/>
      <point x="651.0" y="647.0"/>
      <point x="710.0" y="605.0" type="curve"/>
      <point x="619.0" y="486.0" type="line"/>
      <point x="570.0" y="528.0"/>
      <point x="514.0" y="570.0"/>
      <point x="425.0" y="570.0" type="curve" smooth="yes"/>
      <point x="277.0" y="570.0"/>
      <point x="205.0" y="488.0"/>
    </contour>
  </outline>
</glyph>
<glyph name="sterling" format="2">
  <advance width="756"/>
  <unicode hex="00A3"/>
  <outline>
    <contour>
      <point x="70.0" y="399.0" type="line"/>
      <point x="70.0" y="439.0" type="line"/>
      <point x="540.0" y="439.0" type="line"/>
      <point x="540.0" y="399.0" type="line"/>
    </contour>
    <contour>
      <point x="70.0" y="279.0" type="line"/>
      <point x="70.0" y="319.0" type="line"/>
      <point x="540.0" y="319.0" type="line"/>
      <point x="540.0" y="279.0" type="line"/>
    </contour>
    <contour>
      <point x="587.0" y="524.0" type="line"/>
      <point x="553.0" y="555.0"/>
      <point x="477.0" y="580.0"/>
      <point x="391.0" y="580.0" type="curve" smooth="yes"/>
      <point x="301.0" y="580.0"/>
      <point x="255.0" y="560.0"/>
      <point x="255.0" y="505.0" type="curve" smooth="yes"/>
      <point x="255.0" y="402.0"/>
      <point x="319.0" y="391.0"/>
      <point x="319.0" y="279.0" type="curve" smooth="yes"/>
      <point x="319.0" y="203.0"/>
      <point x="267.0" y="157.0"/>
      <point x="184.0" y="90.0" type="curve"/>
      <point x="169.0" y="100.0" type="line"/>
      <point x="230.0" y="131.0"/>
      <point x="231.0" y="187.0"/>
      <point x="317.0" y="187.0" type="curve" smooth="yes"/>
      <point x="443.0" y="187.0"/>
      <point x="456.0" y="127.0"/>
      <point x="573.0" y="127.0" type="curve" smooth="yes"/>
      <point x="608.0" y="127.0"/>
      <point x="665.0" y="136.0"/>
      <point x="706.0" y="150.0" type="curve"/>
      <point x="706.0" y="0.0" type="line"/>
      <point x="665.0" y="-14.0"/>
      <point x="598.0" y="-23.0"/>
      <point x="563.0" y="-23.0" type="curve" smooth="yes"/>
      <point x="426.0" y="-23.0"/>
      <point x="393.0" y="42.0"/>
      <point x="267.0" y="42.0" type="curve" smooth="yes"/>
      <point x="221.0" y="42.0"/>
      <point x="177.0" y="23.0"/>
      <point x="129.0" y="-15.0" type="curve"/>
      <point x="40.0" y="90.0" type="line"/>
      <point x="93.0" y="147.0"/>
      <point x="172.0" y="203.0"/>
      <point x="172.0" y="259.0" type="curve" smooth="yes"/>
      <point x="172.0" y="371.0"/>
      <point x="100.0" y="395.0"/>
      <point x="100.0" y="520.0" type="curve" smooth="yes"/>
      <point x="100.0" y="650.0"/>
      <point x="214.0" y="720.0"/>
      <point x="398.0" y="720.0" type="curve" smooth="yes"/>
      <point x="531.0" y="720.0"/>
      <point x="621.0" y="670.0"/>
      <point x="666.0" y="630.0" type="curve"/>
    </contour>
  </outline>
</glyph>
<glyph name="yen" format="2">
  <advance width="701"/>
  <unicode hex="00A5"/>
  <outline>
    <contour>
      <point x="91.0" y="321.0" type="line"/>
      <point x="91.0" y="361.0" type="line"/>
      <point x="605.0" y="361.0" type="line"/>
      <point x="605.0" y="321.0" type="line"/>
    </contour>
    <contour>
      <point x="91.0" y="201.0" type="line"/>
      <point x="91.0" y="241.0" type="line"/>
      <point x="605.0" y="241.0" type="line"/>
      <point x="605.0" y="201.0" type="line"/>
    </contour>
    <contour>
      <point x="531.0" y="700.0" type="line"/>
      <point x="706.0" y="700.0" type="line"/>
      <point x="430.0" y="272.0" type="line"/>
      <point x="430.0" y="0.0" type="line"/>
      <point x="266.0" y="0.0" type="line"/>
      <point x="266.0" y="271.0" type="line"/>
      <point x="-5.0" y="700.0" type="line"/>
      <point x="175.0" y="700.0" type="line"/>
      <point x="348.0" y="396.0" type="line"/>
    </contour>
  </outline>
</glyph>
<glyph name="brokenbar" format="2">
  <advance width="344"/>
  <unicode hex="00A6"/>
  <outline>
    <contour>
      <point x="100.0" y="780.0" type="line"/>
      <point x="244.0" y="780.0" type="line"/>
      <point x="244.0" y="380.0" type="line"/>
      <point x="100.0" y="380.0" type="line"/>
    </contour>
    <contour>
      <point x="100.0" y="180.0" type="line"/>
      <point x="244.0" y="180.0" type="line"/>
      <point x="244.0" y="-220.0" type="line"/>
      <point x="100.0" y="-220.0" type="line"/>
    </contour>
  </outline>
</glyph>
<glyph name="guillemotleft" format="2">
  <advance width="582"/>
  <unicode hex="00AB"/>
  <outline>
    <contour>
      <point x="418.0" y="259.0" type="line"/>
      <point x="548.0" y="85.0" type="line"/>
      <point x="461.0" y="12.0" type="line"/>
      <point x="275.0" y="255.0" type="line"/>
      <point x="461.0" y="498.0" type="line"/>
      <point x="548.0" y="425.0" type="line"/>
    </contour>
    <contour>
      <point x="181.0" y="259.0" type="line"/>
      <point x="311.0" y="85.0" type="line"/>
      <point x="223.0" y="12.0" type="line"/>
      <point x="38.0" y="255.0" type="line"/>
      <point x="223.0" y="498.0" type="line"/>
      <point x="311.0" y="425.0" type="line"/>
    </contour>
  </outline>
</glyph>
<glyph name="logicalnot" format="2">
  <advance width="575"/>
  <unicode hex="00AC"/>
  <outline>
    <contour>
      <point x="376.0" y="475.0" type="line"/>
      <point x="60.0" y="475.0" type="line"/>
      <point x="60.0" y="615.0" type="line"/>
      <point x="516.0" y="615.0" type="line"/>
      <point x="516.0" y="373.0" type="line"/>
      <point x="376.0" y="373.0" type="line"/>
    </contour>
  </outline>
</glyph>
<glyph name="degree" format="2">
  <advance width="319"/>
  <unicode hex="00B0"/>
  <outline>
    <contour>
      <point x="40.0" y="680.0" type="curve" smooth="yes"/>
      <point x="40.0" y="746.0"/>
      <point x="94.0" y="800.0"/>
      <point x="160.0" y="800.0" type="curve" smooth="yes"/>
      <point x="226.0" y="800.0"/>
      <point x="280.0" y="746.0"/>
      <point x="280.0" y="680.0" type="curve" smooth="yes"/>
      <point x="280.0" y="614.0"/>
      <point x="226.0" y="560.0"/>
      <point x="160.0" y="560.0" type="curve" smooth="yes"/>
      <point x="94.0" y="560.0"/>
      <point x="40.0" y="614.0"/>
    </contour>
    <contour>
      <point x="114.0" y="680.0" type="curve" smooth="yes"/>
      <point x="114.0" y="653.0"/>
      <point x="133.0" y="635.0"/>
      <point x="160.0" y="635.0" type="curve" smooth="yes"/>
      <point x="187.0" y="635.0"/>
      <point x="205.0" y="653.0"/>
      <point x="205.0" y="680.0" type="curve" smooth="yes"/>
      <point x="205.0" y="707.0"/>
      <point x="187.0" y="725.0"/>
      <point x="160.0" y="725.0" type="curve" smooth="yes"/>
      <point x="133.0" y="725.0"/>
      <point x="114.0" y="707.0"/>
    </contour>
  </outline>
</glyph>
<glyph name="plusminus" format="2">
  <advance width="536"/>
  <unicode hex="00B1"/>
  <outline>
    <contour>
      <point x="20.0" y="30.0" type="line"/>
      <point x="20.0" y="170.0" type="line"/>
      <point x="515.0" y="170.0" type="line"/>
      <point x="515.0" y="30.0" type="line"/>
    </contour>
    <component base="plus" xOffset="-70.0" yOffset="210.0"/>
  </outline>
</glyph>
<glyph name="acute" format="2">
  <advance width="375"/>
  <unicode hex="00B4"/>
  <outline>
    <contour>
      <point x="314.0" y="646.0" type="line"/>
      <point x="134.0" y="496.0" type="line"/>
      <point x="45.0" y="575.0" type="line"/>
      <point x="195.0" y="735.0" type="line"/>
    </contour>
  </outline>
</glyph>
<glyph name="paragraph" format="2">
  <advance width="680"/>
  <unicode hex="00B6"/>
  <outline>
    <contour>
      <point x="405.0" y="580.0" type="line"/>
      <point x="405.0" y="700.0" type="line"/>
      <point x="475.0" y="700.0" type="line"/>
      <point x="475.0" y="580.0" type="line"/>
    </contour>
    <contour>
      <point x="595.0" y="700.0" type="line"/>
      <point x="595.0" y="-80.0" type="line"/>
      <point x="475.0" y="-80.0" type="line"/>
      <point x="475.0" y="700.0" type="line"/>
    </contour>
    <contour>
      <point x="405.0" y="700.0" type="line"/>
      <point x="405.0" y="-80.0" type="line"/>
      <point x="285.0" y="-80.0" type="line"/>
      <point x="285.0" y="700.0" type="line"/>
    </contour>
    <contour>
      <point x="285.0" y="240.0" type="line" smooth="yes"/>
      <point x="145.0" y="240.0"/>
      <point x="50.0" y="325.0"/>
      <point x="50.0" y="470.0" type="curve" smooth="yes"/>
      <point x="50.0" y="615.0"/>
      <point x="145.0" y="700.0"/>
      <point x="285.0" y="700.0" type="curve" smooth="yes"/>
      <point x="365.0" y="700.0" type="line"/>
      <point x="365.0" y="240.0" type="line"/>
    </contour>
  </outline>
</glyph>
<glyph name="cedilla" format="2">
  <advance width="549"/>
  <unicode hex="00B8"/>
  <outline>
    <contour>
      <point x="258.0" y="-168.0" type="curve" smooth="yes"/>
      <point x="258.0" y="-127.0"/>
      <point x="221.0" y="-114.0"/>
      <point x="176.0" y="-114.0" type="curve"/>
      <point x="266.0" y="6.0" type="line"/>
      <point x="310.0" y="6.0" type="line"/>
      <point x="250.0" y="-74.0" type="line"/>
      <point x="362.0" y="-77.0"/>
      <point x="409.0" y="-99.0"/>
      <point x="409.0" y="-155.0" type="curve" smooth="yes"/>
      <point x="409.0" y="-205.0"/>
      <point x="351.0" y="-254.0"/>
      <point x="190.0" y="-254.0" type="curve"/>
      <point x="190.0" y="-218.0" type="line"/>
      <point x="229.0" y="-218.0"/>
      <point x="258.0" y="-198.0"/>
    </contour>
  </outline>
</glyph>
<glyph name="guillemotright" format="2">
  <advance width="582"/>
  <unicode hex="00BB"/>
  <outline>
    <contour>
      <point x="164.0" y="251.0" type="line"/>
      <point x="34.0" y="425.0" type="line"/>
      <point x="121.0" y="498.0" type="line"/>
      <point x="307.0" y="255.0" type="line"/>
      <point x="121.0" y="12.0" type="line"/>
      <point x="34.0" y="85.0" type="line"/>
    </contour>
    <contour>
      <point x="401.0" y="251.0" type="line"/>
      <point x="271.0" y="425.0" type="line"/>
      <point x="359.0" y="498.0" type="line"/>
      <point x="544.0" y="255.0" type="line"/>
      <point x="359.0" y="12.0" type="line"/>
      <point x="271.0" y="85.0" type="line"/>
    </contour>
  </outline>
</glyph>
<glyph name="AE" format="2">
  <advance width="1196"/>
  <unicode hex="00C6"/>
  <outline>
    <contour>
      <point x="179.0" y="180.0" type="line"/>
      <point x="209.0" y="310.0" type="line"/>
      <point x="579.0" y="310.0" type="line"/>
      <point x="609.0" y="180.0" type="line"/>
    </contour>
    <contour>
      <point x="572.0" y="700.0" type="line"/>
      <point x="172.0" y="0.0" type="line"/>
      <point x="10.0" y="0.0" type="line"/>
      <point x="410.0" y="700.0" type="line"/>
    </contour>
    <contour>
      <point x="607.0" y="0.0" type="line"/>
      <point x="607.0" y="140.0" type="line"/>
      <point x="1151.0" y="140.0" type="line"/>
      <point x="1151.0" y="0.0" type="line"/>
    </contour>
    <contour>
      <point x="607.0" y="560.0" type="line"/>
      <point x="607.0" y="700.0" type="line"/>
      <point x="1151.0" y="700.0" type="line"/>
      <point x="1151.0" y="560.0" type="line"/>
    </contour>
    <contour>
      <point x="607.0" y="290.0" type="line"/>
      <point x="607.0" y="425.0" type="line"/>
      <point x="981.0" y="425.0" type="line"/>
      <point x="981.0" y="290.0" type="line"/>
    </contour>
    <contour>
      <point x="535.0" y="700.0" type="line"/>
      <point x="695.0" y="700.0" type="line"/>
      <point x="695.0" y="0.0" type="line"/>
      <point x="535.0" y="0.0" type="line"/>
    </contour>
  </outline>
</glyph>
<glyph name="Thorn" format="2">
  <advance width="753"/>
  <unicode hex="00DE"/>
  <outline>
    <contour>
      <point x="85.0" y="700.0" type="line"/>
      <point x="235.0" y="700.0" type="line"/>
      <point x="235.0" y="0.0" type="line"/>
      <point x="85.0" y="0.0" type="line"/>
    </contour>
    <contour>
      <point x="172.0" y="431.0" type="line"/>
      <point x="172.0" y="571.0" type="line"/>
      <point x="480.0" y="571.0" type="line" smooth="yes"/>
      <point x="605.0" y="571.0"/>
      <point x="718.0" y="525.0"/>
      <point x="718.0" y="371.0" type="curve" smooth="yes"/>
      <point x="718.0" y="218.0"/>
      <point x="605.0" y="171.0"/>
      <point x="480.0" y="171.0" type="curve" smooth="yes"/>
      <point x="172.0" y="171.0" type="line"/>
      <point x="172.0" y="311.0" type="line"/>
      <point x="470.0" y="311.0" type="line" smooth="yes"/>
      <point x="539.0" y="311.0"/>
      <point x="563.0" y="335.0"/>
      <point x="563.0" y="371.0" type="curve" smooth="yes"/>
      <point x="563.0" y="407.0"/>
      <point x="539.0" y="431.0"/>
      <point x="470.0" y="431.0" type="curve" smooth="yes"/>
    </contour>
  </outline>
</glyph>
<glyph name="Lslash" format="2">
  <advance width="720"/>
  <unicode hex="0141"/>
  <outline>
    <contour>
      <point x="0.0" y="199.0" type="line"/>
      <point x="0.0" y="369.0" type="line"/>
      <point x="400.0" y="580.0" type="line"/>
      <point x="400.0" y="410.0" type="line"/>
    </contour>
    <component base="L"/>
  </outline>
</glyph>
<glyph name="Eng" format="2">
  <advance width="792"/>
  <unicode hex="014A"/>
  <outline>
    <contour>
      <point x="230.0" y="479.0" type="curve"/>
      <point x="166.0" y="550.0" type="line"/>
      <point x="251.0" y="640.0"/>
      <point x="311.0" y="720.0"/>
      <point x="454.0" y="720.0" type="curve" smooth="yes"/>
      <point x="608.0" y="720.0"/>
      <point x="712.0" y="649.0"/>
      <point x="712.0" y="520.0" type="curve" smooth="yes"/>
      <point x="712.0" y="440.0" type="line"/>
      <point x="557.0" y="440.0" type="line"/>
      <point x="557.0" y="475.0" type="line" smooth="yes"/>
      <point x="557.0" y="564.0"/>
      <point x="501.0" y="590.0"/>
      <point x="431.0" y="590.0" type="curve" smooth="yes"/>
      <point x="345.0" y="590.0"/>
      <point x="274.0" y="540.0"/>
    </contour>
    <contour>
      <point x="85.0" y="700.0" type="line"/>
      <point x="240.0" y="700.0" type="line"/>
      <point x="240.0" y="0.0" type="line"/>
      <point x="85.0" y="0.0" type="line"/>
    </contour>
    <contour>
      <point x="367.0" y="167.0" type="line"/>
      <point x="401.0" y="140.0"/>
      <point x="445.0" y="120.0"/>
      <point x="491.0" y="120.0" type="curve" smooth="yes"/>
      <point x="541.0" y="120.0"/>
      <point x="557.0" y="136.0"/>
      <point x="557.0" y="185.0" type="curve" smooth="yes"/>
      <point x="557.0" y="440.0" type="line"/>
      <point x="712.0" y="440.0" type="line"/>
      <point x="712.0" y="140.0" type="line" smooth="yes"/>
      <point x="712.0" y="31.0"/>
      <point x="608.0" y="-20.0"/>
      <point x="494.0" y="-20.0" type="curve" smooth="yes"/>
      <point x="411.0" y="-20.0"/>
      <point x="341.0" y="20.0"/>
      <point x="296.0" y="50.0" type="curve"/>
    </contour>
  </outline>
</glyph>
<glyph name="OE" format="2">
  <advance width="1271"/>
  <unicode hex="0152"/>
  <outline>
    <contour>
      <point x="405.0" y="700.0" type="curve" smooth="yes"/>
      <point x="720.0" y="700.0" type="line"/>
      <point x="720.0" y="560.0" type="line"/>
      <point x="415.0" y="560.0" type="line" smooth="yes"/>
      <point x="287.0" y="560.0"/>
      <point x="215.0" y="493.0"/>
      <point x="215.0" y="350.0" type="curve" smooth="yes"/>
      <point x="215.0" y="207.0"/>
      <point x="287.0" y="140.0"/>
      <point x="415.0" y="140.0" type="curve" smooth="yes"/>
      <point x="720.0" y="140.0" type="line"/>
      <point x="720.0" y="0.0" type="line"/>
      <point x="405.0" y="0.0" type="line" smooth="yes"/>
      <point x="201.0" y="0.0"/>
      <point x="55.0" y="131.0"/>
      <point x="55.0" y="350.0" type="curve" smooth="yes"/>
      <point x="55.0" y="569.0"/>
      <point x="201.0" y="700.0"/>
    </contour>
    <contour>
      <point x="682.0" y="0.0" type="line"/>
      <point x="682.0" y="140.0" type="line"/>
      <point x="1226.0" y="140.0" type="line"/>
      <point x="1226.0" y="0.0" type="line"/>
    </contour>
    <contour>
      <point x="682.0" y="560.0" type="line"/>
      <point x="682.0" y="700.0" type="line"/>
      <point x="1226.0" y="700.0" type="line"/>
      <point x="1226.0" y="560.0" type="line"/>
    </contour>
    <contour>
      <point x="682.0" y="290.0" type="line"/>
      <point x="682.0" y="425.0" type="line"/>
      <point x="1056.0" y="425.0" type="line"/>
      <point x="1056.0" y="290.0" type="line"/>
    </contour>
    <contour>
      <point x="610.0" y="700.0" type="line"/>
      <point x="760.0" y="700.0" type="line"/>
      <point x="760.0" y="0.0" type="line"/>
      <point x="610.0" y="0.0" type="line"/>
    </contour>
  </outline>
</glyph>
<glyph name="Tbar" format="2">
  <advance width="705"/>
  <unicode hex="0166"/>
  <outline>
    <contour>
      <point x="110.0" y="305.0" type="line"/>
      <point x="110.0" y="405.0" type="line"/>
      <point x="575.0" y="405.0" type="line"/>
      <point x="575.0" y="305.0" type="line"/>
    </contour>
    <component base="T"/>
  </outline>
</glyph>
<glyph name="circumflex" format="2">
  <advance width="424"/>
  <unicode hex="02C6"/>
  <outline>
    <contour>
      <point x="212.0" y="884.0" type="line"/>
      <point x="152.0" y="793.0" type="line"/>
      <point x="22.0" y="793.0" type="line"/>
      <point x="132.0" y="943.0" type="line"/>
      <point x="292.0" y="943.0" type="line"/>
      <point x="402.0" y="793.0" type="line"/>
      <point x="272.0" y="793.0" type="line"/>
    </contour>
  </outline>
</glyph>
<glyph name="breve" format="2">
  <advance height="1154" width="299"/>
  <unicode hex="02D8"/>
  <outline>
    <contour>
      <point x="105.0" y="919.0" type="line"/>
      <point x="105.0" y="890.0"/>
      <point x="116.0" y="880.0"/>
      <point x="150.0" y="880.0" type="curve" smooth="yes"/>
      <point x="184.0" y="880.0"/>
      <point x="195.0" y="890.0"/>
      <point x="195.0" y="919.0" type="curve"/>
      <point x="310.0" y="919.0" type="line"/>
      <point x="310.0" y="838.0"/>
      <point x="250.0" y="770.0"/>
      <point x="150.0" y="770.0" type="curve" smooth="yes"/>
      <point x="50.0" y="770.0"/>
      <point x="-10.0" y="838.0"/>
      <point x="-10.0" y="919.0" type="curve"/>
    </contour>
  </outline>
</glyph>
<glyph name="ring" format="2">
  <advance width="319"/>
  <unicode hex="02DA"/>
  <outline>
    <contour>
      <point x="40.0" y="852.0" type="curve" smooth="yes"/>
      <point x="40.0" y="918.0"/>
      <point x="94.0" y="972.0"/>
      <point x="160.0" y="972.0" type="curve" smooth="yes"/>
      <point x="226.0" y="972.0"/>
      <point x="280.0" y="918.0"/>
      <point x="280.0" y="852.0" type="curve" smooth="yes"/>
      <point x="280.0" y="786.0"/>
      <point x="226.0" y="732.0"/>
      <point x="160.0" y="732.0" type="curve" smooth="yes"/>
      <point x="94.0" y="732.0"/>
      <point x="40.0" y="786.0"/>
    </contour>
    <contour>
      <point x="114.0" y="852.0" type="curve" smooth="yes"/>
      <point x="114.0" y="825.0"/>
      <point x="133.0" y="807.0"/>
      <point x="160.0" y="807.0" type="curve" smooth="yes"/>
      <point x="187.0" y="807.0"/>
      <point x="205.0" y="825.0"/>
      <point x="205.0" y="852.0" type="curve" smooth="yes"/>
      <point x="205.0" y="879.0"/>
      <point x="187.0" y="897.0"/>
      <point x="160.0" y="897.0" type="curve" smooth="yes"/>
      <point x="133.0" y="897.0"/>
      <point x="114.0" y="879.0"/>
    </contour>
  </outline>
</glyph>
<glyph name="tilde" format="2">
  <advance width="447"/>
  <unicode hex="02DC"/>
  <outline>
    <contour>
      <point x="140.0" y="836.0" type="curve"/>
      <point x="16.0" y="836.0" type="line"/>
      <point x="14.0" y="843.0"/>
      <point x="13.0" y="866.0"/>
      <point x="13.0" y="875.0" type="curve" smooth="yes"/>
      <point x="13.0" y="906.0"/>
      <point x="18.84765625" y="941.115234375"/>
      <point x="37.0" y="965.0" type="curve" smooth="yes"/>
      <point x="56.0" y="990.0"/>
      <point x="86.0" y="1007.0"/>
      <point x="127.0" y="1007.0" type="curve" smooth="yes"/>
      <point x="174.0" y="1007.0"/>
      <point x="197.359705792" y="988.511969005"/>
      <point x="222.0" y="971.0" type="curve" smooth="yes"/>
      <point x="252.424804688" y="949.376953125"/>
      <point x="267.0" y="922.0"/>
      <point x="292.0" y="922.0" type="curve" smooth="yes"/>
      <point x="310.0" y="922.0"/>
      <point x="315.0" y="932.0"/>
      <point x="315.0" y="951.0" type="curve" smooth="yes"/>
      <point x="315.0" y="959.0"/>
      <point x="312.0" y="973.0"/>
      <point x="308.0" y="983.0" type="curve"/>
      <point x="434.0" y="983.0" type="line"/>
      <point x="436.0" y="975.0"/>
      <point x="438.0" y="950.0"/>
      <point x="438.0" y="940.0" type="curve" smooth="yes"/>
      <point x="438.0" y="900.0"/>
      <point x="433.16015625" y="871.880859375"/>
      <point x="416.0" y="849.0" type="curve" smooth="yes"/>
      <point x="398.0" y="825.0"/>
      <point x="376.0" y="812.0"/>
      <point x="330.0" y="812.0" type="curve" smooth="yes"/>
      <point x="286.0" y="812.0"/>
      <point x="259.510742188" y="823.541015625"/>
      <point x="229.0" y="855.0" type="curve" smooth="yes"/>
      <point x="210.060211457" y="874.528417506"/>
      <point x="193.0" y="897.0"/>
      <point x="169.0" y="897.0" type="curve" smooth="yes"/>
      <point x="148.0" y="897.0"/>
      <point x="131.0" y="888.0"/>
      <point x="131.0" y="863.0" type="curve" smooth="yes"/>
      <point x="131.0" y="856.0"/>
      <point x="134.0" y="844.0"/>
    </contour>
  </outline>
</glyph>
<glyph name="uni0307" format="2">
  <unicode hex="0307"/>
  <outline>
    <contour>
      <point x="-288.0" y="574.0" type="curve" smooth="yes"/>
      <point x="-288.0" y="632.0"/>
      <point x="-239.0" y="684.0"/>
      <point x="-178.0" y="684.0" type="curve" smooth="yes"/>
      <point x="-117.0" y="684.0"/>
      <point x="-68.0" y="632.0"/>
      <point x="-68.0" y="574.0" type="curve" smooth="yes"/>
      <point x="-68.0" y="516.0"/>
      <point x="-117.0" y="464.0"/>
      <point x="-178.0" y="464.0" type="curve" smooth="yes"/>
      <point x="-239.0" y="464.0"/>
      <point x="-288.0" y="516.0"/>
    </contour>
  </outline>
</glyph>
<glyph name="uni1E9E" format="2">
  <advance width="861"/>
  <unicode hex="1E9E"/>
  <outline>
    <contour>
      <point x="545.0" y="-12.0" type="curve" smooth="yes"/>
      <point x="439.0" y="-12.0"/>
      <point x="351.0" y="21.0"/>
      <point x="295.0" y="56.0" type="curve"/>
      <point x="339.0" y="177.0" type="line"/>
      <point x="389.0" y="148.0"/>
      <point x="481.0" y="114.0"/>
      <point x="541.0" y="114.0" type="curve" smooth="yes"/>
      <point x="621.0" y="114.0"/>
      <point x="667.0" y="132.0"/>
      <point x="667.0" y="172.0" type="curve" smooth="yes"/>
      <point x="667.0" y="256.0"/>
      <point x="453.0" y="243.0"/>
      <point x="453.0" y="369.0" type="curve" smooth="yes"/>
      <point x="453.0" y="455.0"/>
      <point x="569.0" y="502.0"/>
      <point x="599.0" y="531.0" type="curve"/>
      <point x="569.0" y="549.0"/>
      <point x="511.0" y="581.0"/>
      <point x="422.0" y="581.0" type="curve" smooth="yes"/>
      <point x="302.0" y="581.0"/>
      <point x="227.3890354" y="546.997083701"/>
      <point x="228.0" y="419.0" type="curve" smooth="yes"/>
      <point x="230.0" y="0.0" type="line"/>
      <point x="75.0" y="0.0" type="line"/>
      <point x="75.0" y="430.0" type="line" smooth="yes"/>
      <point x="75.0" y="649.0"/>
      <point x="241.0" y="712.0"/>
      <point x="431.0" y="712.0" type="curve" smooth="yes"/>
      <point x="598.0" y="712.0"/>
      <point x="731.0" y="616.0"/>
      <point x="793.0" y="548.0" type="curve"/>
      <point x="743.0" y="502.0"/>
      <point x="615.0" y="436.0"/>
      <point x="615.0" y="384.0" type="curve" smooth="yes"/>
      <point x="615.0" y="312.0"/>
      <point x="831.0" y="335.0"/>
      <point x="831.0" y="179.0" type="curve" smooth="yes"/>
      <point x="831.0" y="65.0"/>
      <point x="713.0" y="-12.0"/>
    </contour>
  </outline>
</glyph>
<glyph name="endash" format="2">
  <advance width="531"/>
  <unicode hex="2013"/>
  <outline>
    <contour>
      <point x="20.0" y="215.0" type="line"/>
      <point x="20.0" y="355.0" type="line"/>
      <point x="511.0" y="355.0" type="line"/>
      <point x="511.0" y="215.0" type="line"/>
    </contour>
  </outline>
</glyph>
<glyph name="emdash" format="2">
  <advance width="815"/>
  <unicode hex="2014"/>
  <outline>
    <contour>
      <point x="20.0" y="215.0" type="line"/>
      <point x="20.0" y="355.0" type="line"/>
      <point x="795.0" y="355.0" type="line"/>
      <point x="795.0" y="215.0" type="line"/>
    </contour>
  </outline>
</glyph>
<glyph name="uni2015" format="2">
  <advance width="901"/>
  <unicode hex="2015"/>
  <outline>
    <contour>
      <point x="20.0" y="215.0" type="line"/>
      <point x="20.0" y="355.0" type="line"/>
      <point x="881.0" y="355.0" type="line"/>
      <point x="881.0" y="215.0" type="line"/>
    </contour>
  </outline>
</glyph>
<glyph name="daggerdbl" format="2">
  <advance width="594"/>
  <unicode hex="2021"/>
  <outline>
    <contour>
      <point x="90.0" y="175.0" type="line"/>
      <point x="505.0" y="175.0" type="line"/>
      <point x="505.0" y="40.0" type="line"/>
      <point x="90.0" y="40.0" type="line"/>
    </contour>
    <contour>
      <point x="90.0" y="540.0" type="line"/>
      <point x="505.0" y="540.0" type="line"/>
      <point x="505.0" y="405.0" type="line"/>
      <point x="90.0" y="405.0" type="line"/>
    </contour>
    <contour>
      <point x="225.0" y="700.0" type="line"/>
      <point x="370.0" y="700.0" type="line"/>
      <point x="370.0" y="-150.0" type="line"/>
      <point x="225.0" y="-150.0" type="line"/>
    </contour>
  </outline>
</glyph>
<glyph name="bullet" format="2">
  <advance width="370"/>
  <unicode hex="2022"/>
  <outline>
    <contour>
      <point x="75.0" y="426.0" type="curve" smooth="yes"/>
      <point x="75.0" y="484.0"/>
      <point x="124.0" y="536.0"/>
      <point x="185.0" y="536.0" type="curve" smooth="yes"/>
      <point x="246.0" y="536.0"/>
      <point x="295.0" y="484.0"/>
      <point x="295.0" y="426.0" type="curve" smooth="yes"/>
      <point x="295.0" y="368.0"/>
      <point x="246.0" y="316.0"/>
      <point x="185.0" y="316.0" type="curve" smooth="yes"/>
      <point x="124.0" y="316.0"/>
      <point x="75.0" y="368.0"/>
    </contour>
  </outline>
</glyph>
<glyph name="perthousand" format="2">
  <advance width="1327"/>
  <unicode hex="2030"/>
  <outline>
    <contour>
      <point x="926.0" y="170.0" type="curve" smooth="yes"/>
      <point x="926.0" y="264.0"/>
      <point x="989.0" y="350.0"/>
      <point x="1104.0" y="350.0" type="curve" smooth="yes"/>
      <point x="1219.0" y="350.0"/>
      <point x="1282.0" y="264.0"/>
      <point x="1282.0" y="170.0" type="curve" smooth="yes"/>
      <point x="1282.0" y="76.0"/>
      <point x="1219.0" y="-10.0"/>
      <point x="1104.0" y="-10.0" type="curve" smooth="yes"/>
      <point x="989.0" y="-10.0"/>
      <point x="926.0" y="76.0"/>
    </contour>
    <contour>
      <point x="1052.0" y="170.0" type="curve" smooth="yes"/>
      <point x="1052.0" y="134.0"/>
      <point x="1074.0" y="115.0"/>
      <point x="1104.0" y="115.0" type="curve" smooth="yes"/>
      <point x="1134.0" y="115.0"/>
      <point x="1156.0" y="134.0"/>
      <point x="1156.0" y="170.0" type="curve" smooth="yes"/>
      <point x="1156.0" y="206.0"/>
      <point x="1134.0" y="225.0"/>
      <point x="1104.0" y="225.0" type="curve" smooth="yes"/>
      <point x="1074.0" y="225.0"/>
      <point x="1052.0" y="206.0"/>
    </contour>
    <contour>
      <point x="530.0" y="170.0" type="curve" smooth="yes"/>
      <point x="530.0" y="264.0"/>
      <point x="593.0" y="350.0"/>
      <point x="708.0" y="350.0" type="curve" smooth="yes"/>
      <point x="823.0" y="350.0"/>
      <point x="886.0" y="264.0"/>
      <point x="886.0" y="170.0" type="curve" smooth="yes"/>
      <point x="886.0" y="76.0"/>
      <point x="823.0" y="-10.0"/>
      <point x="708.0" y="-10.0" type="curve" smooth="yes"/>
      <point x="593.0" y="-10.0"/>
      <point x="530.0" y="76.0"/>
    </contour>
    <contour>
      <point x="656.0" y="170.0" type="curve" smooth="yes"/>
      <point x="656.0" y="134.0"/>
      <point x="678.0" y="115.0"/>
      <point x="708.0" y="115.0" type="curve" smooth="yes"/>
      <point x="738.0" y="115.0"/>
      <point x="760.0" y="134.0"/>
      <point x="760.0" y="170.0" type="curve" smooth="yes"/>
      <point x="760.0" y="206.0"/>
      <point x="738.0" y="225.0"/>
      <point x="708.0" y="225.0" type="curve" smooth="yes"/>
      <point x="678.0" y="225.0"/>
      <point x="656.0" y="206.0"/>
    </contour>
    <contour>
      <point x="45.0" y="530.0" type="curve" smooth="yes"/>
      <point x="45.0" y="624.0"/>
      <point x="108.0" y="710.0"/>
      <point x="223.0" y="710.0" type="curve" smooth="yes"/>
      <point x="338.0" y="710.0"/>
      <point x="401.0" y="624.0"/>
      <point x="401.0" y="530.0" type="curve" smooth="yes"/>
      <point x="401.0" y="436.0"/>
      <point x="338.0" y="350.0"/>
      <point x="223.0" y="350.0" type="curve" smooth="yes"/>
      <point x="108.0" y="350.0"/>
      <point x="45.0" y="436.0"/>
    </contour>
    <contour>
      <point x="171.0" y="530.0" type="curve" smooth="yes"/>
      <point x="171.0" y="494.0"/>
      <point x="193.0" y="475.0"/>
      <point x="223.0" y="475.0" type="curve" smooth="yes"/>
      <point x="253.0" y="475.0"/>
      <point x="275.0" y="494.0"/>
      <point x="275.0" y="530.0" type="curve" smooth="yes"/>
      <point x="275.0" y="566.0"/>
      <point x="253.0" y="585.0"/>
      <point x="223.0" y="585.0" type="curve" smooth="yes"/>
      <point x="193.0" y="585.0"/>
      <point x="171.0" y="566.0"/>
    </contour>
    <contour>
      <point x="643.0" y="700.0" type="line"/>
      <point x="808.0" y="700.0" type="line"/>
      <point x="288.0" y="0.0" type="line"/>
      <point x="123.0" y="0.0" type="line"/>
    </contour>
  </outline>
</glyph>
<glyph name="guilsinglleft" format="2">
  <advance width="364"/>
  <unicode hex="2039"/>
  <outline>
    <contour>
      <point x="181.0" y="259.0" type="line"/>
      <point x="311.0" y="85.0" type="line"/>
      <point x="223.0" y="12.0" type="line"/>
      <point x="38.0" y="255.0" type="line"/>
      <point x="223.0" y="498.0" type="line"/>
      <point x="311.0" y="425.0" type="line"/>
    </contour>
  </outline>
</glyph>
<glyph name="guilsinglright" format="2">
  <advance width="365"/>
  <unicode hex="203A"/>
  <outline>
    <contour>
      <point x="184.0" y="251.0" type="line"/>
      <point x="54.0" y="425.0" type="line"/>
      <point x="141.0" y="498.0" type="line"/>
      <point x="327.0" y="255.0" type="line"/>
      <point x="141.0" y="12.0" type="line"/>
      <point x="54.0" y="85.0" type="line"/>
    </contour>
  </outline>
</glyph>
<glyph name="Euro" format="2">
  <advance width="855"/>
  <unicode hex="20AC"/>
  <outline>
    <contour>
      <point x="5.0" y="399.0" type="line"/>
      <point x="5.0" y="439.0" type="line"/>
      <point x="475.0" y="439.0" type="line"/>
      <point x="475.0" y="399.0" type="line"/>
    </contour>
    <contour>
      <point x="5.0" y="279.0" type="line"/>
      <point x="5.0" y="319.0" type="line"/>
      <point x="475.0" y="319.0" type="line"/>
      <point x="475.0" y="279.0" type="line"/>
    </contour>
    <contour>
      <point x="215.0" y="350.0" type="curve" smooth="yes"/>
      <point x="215.0" y="212.0"/>
      <point x="307.0" y="130.0"/>
      <point x="475.0" y="130.0" type="curve" smooth="yes"/>
      <point x="584.0" y="130.0"/>
      <point x="669.0" y="180.0"/>
      <point x="728.0" y="232.0" type="curve"/>
      <point x="820.0" y="115.0" type="line"/>
      <point x="751.0" y="63.0"/>
      <point x="637.0" y="-10.0"/>
      <point x="475.0" y="-10.0" type="curve" smooth="yes"/>
      <point x="212.0" y="-10.0"/>
      <point x="50.0" y="136.0"/>
      <point x="50.0" y="350.0" type="curve" smooth="yes"/>
      <point x="50.0" y="564.0"/>
      <point x="212.0" y="710.0"/>
      <point x="475.0" y="710.0" type="curve" smooth="yes"/>
      <point x="637.0" y="710.0"/>
      <point x="741.0" y="647.0"/>
      <point x="800.0" y="605.0" type="curve"/>
      <point x="709.0" y="486.0" type="line"/>
      <point x="660.0" y="528.0"/>
      <point x="584.0" y="570.0"/>
      <point x="475.0" y="570.0" type="curve" smooth="yes"/>
      <point x="307.0" y="570.0"/>
      <point x="215.0" y="488.0"/>
    </contour>
  </outline>
</glyph>
